<?xml version="1.0" encoding="UTF-8" standalone="no"?>
<!-- Created with Inkscape (http://www.inkscape.org/) -->
<svg
   xmlns:dc="http://purl.org/dc/elements/1.1/"
   xmlns:cc="http://web.resource.org/cc/"
   xmlns:rdf="http://www.w3.org/1999/02/22-rdf-syntax-ns#"
   xmlns:svg="http://www.w3.org/2000/svg"
   xmlns="http://www.w3.org/2000/svg"
   xmlns:sodipodi="http://sodipodi.sourceforge.net/DTD/sodipodi-0.dtd"
   xmlns:inkscape="http://www.inkscape.org/namespaces/inkscape"
   version="1.0"
   width="231.79964"
   height="306.03134"
   id="svg2"
   sodipodi:version="0.32"
   inkscape:version="0.45.1"
   sodipodi:docname="regione thumb Piemonte.svg"
   inkscape:output_extension="org.inkscape.output.svg.inkscape"
   sodipodi:docbase="C:\Documents and Settings\AleXander\Desktop">
  <metadata
     id="metadata156">
    <rdf:RDF>
      <cc:Work
         rdf:about="">
        <dc:format>image/svg+xml</dc:format>
        <dc:type
           rdf:resource="http://purl.org/dc/dcmitype/StillImage" />
      </cc:Work>
    </rdf:RDF>
  </metadata>
  <sodipodi:namedview
     inkscape:window-height="844"
     inkscape:window-width="1440"
     inkscape:pageshadow="2"
     inkscape:pageopacity="0.0"
     guidetolerance="10.0"
     gridtolerance="10.0"
     objecttolerance="10.0"
     borderopacity="1.0"
     bordercolor="#666666"
     pagecolor="#ffffff"
     id="base"
     inkscape:zoom="0.43997048"
     inkscape:cx="593.11764"
     inkscape:cy="-281.50613"
     inkscape:window-x="0"
     inkscape:window-y="22"
     inkscape:current-layer="svg2" />
  <defs
     id="defs5" />
  <path
     d="M 162.89256,1.0000958 C 162.81316,1.0015558 162.72486,1.0199358 162.64256,1.0313458 C 162.14866,1.0998258 161.56366,1.3438558 160.95506,1.3438458 C 159.90916,1.3438458 159.56836,1.3242958 159.08006,1.8125958 C 158.60856,2.2840658 158.34136,2.5910158 157.70506,2.7500958 C 157.06746,2.9094958 156.73056,3.1655858 156.01756,3.3438458 C 155.64066,3.4380658 154.95416,4.2205558 154.76756,4.5938458 C 154.31826,5.4922858 153.76476,5.4702158 153.08006,5.8125958 C 152.38756,6.1588058 151.94156,6.4755858 151.39256,6.7500958 C 150.80506,7.0438158 151.16636,8.4706358 151.23626,8.7500958 C 151.32276,9.0961758 152.27796,9.4792658 152.61126,9.8125958 C 153.16396,10.365316 153.23626,10.520416 153.23626,11.531346 C 153.23626,12.449036 153.58606,12.731426 152.61126,13.218846 C 152.05056,13.499186 151.63636,13.878156 151.08006,14.156346 C 150.15736,14.617656 149.94556,14.353276 149.39256,14.906346 C 148.86226,15.436606 148.26876,15.717596 147.83006,16.156346 C 147.33416,16.652176 146.80666,16.749786 146.61126,17.531346 C 146.52616,17.871906 145.33956,18.521746 145.08006,18.781346 C 144.59076,19.270626 144.50196,19.749966 144.14256,20.468846 C 143.70896,21.335866 143.35686,21.723216 142.92376,22.156346 C 142.62796,22.452206 141.57056,22.754796 141.20506,22.937596 C 140.56436,23.257936 139.44036,23.093846 138.61126,23.093846 C 137.69656,23.093846 136.92396,23.062486 136.29876,23.375096 C 135.86616,23.591416 135.71086,24.587996 135.36126,24.937596 C 134.93896,25.359896 134.49776,25.801086 133.98626,26.312596 C 133.44386,26.854966 132.69816,27.269156 132.11126,27.562596 C 131.08896,28.073746 132.92206,28.874236 133.04876,28.937596 C 133.25426,29.040336 133.46826,29.147366 133.67376,29.250096 C 134.35776,29.592116 134.73676,30.000596 135.20506,30.468846 C 135.79196,31.055756 136.69706,31.648396 137.36126,32.312596 C 137.86216,32.813536 137.93336,33.351046 138.14256,34.187596 C 138.36416,35.074156 138.32146,35.451666 138.61126,36.031346 C 138.99686,36.802496 139.20506,36.714486 139.20506,37.875096 C 139.20506,38.676786 139.22036,39.188686 139.04876,39.875096 C 138.87266,40.579326 138.45506,40.471136 138.45506,41.562596 C 138.45506,42.238456 137.85876,42.697766 137.67376,43.437596 C 137.50836,44.099166 136.72876,44.597606 136.29876,44.812596 C 135.79556,45.064206 135.33296,45.903376 134.89256,46.343846 C 134.43746,46.798956 133.78706,46.990326 133.20506,47.281346 C 132.69076,47.538456 131.58826,47.615226 131.04876,47.750096 C 130.03256,48.004136 129.77696,47.771896 129.04876,48.500096 C 128.53506,49.013816 128.21866,49.330256 127.79876,49.750096 C 127.47266,50.076226 127.29466,50.945896 127.04876,51.437596 C 126.80046,51.934276 126.58006,52.807276 126.58006,53.437596 C 126.58006,54.253516 126.57836,54.962046 126.73626,55.593846 C 126.95106,56.453156 126.56706,57.020676 126.42376,57.593846 C 126.28376,58.153796 125.33846,58.782826 125.04876,59.000096 C 124.64226,59.304956 124.47296,60.013406 123.95506,60.531346 C 123.38326,61.103096 123.42916,61.225326 122.58006,61.437596 C 121.78006,61.637596 121.45666,62.062606 120.58006,62.062596 C 119.54326,62.062596 118.22616,61.804326 117.17376,61.593846 C 116.29756,61.418596 115.56036,61.791156 115.01756,62.062596 C 114.62656,62.258076 113.94516,63.117346 113.79876,63.312596 C 113.50546,63.703676 114.23506,64.563826 113.64256,65.156346 C 113.26966,65.529186 113.48626,66.778806 113.48626,67.312596 C 113.48626,67.879746 113.43716,68.427866 113.39256,68.968846 C 114.08376,69.565846 114.26916,70.433686 114.29876,71.218846 C 114.33156,72.088886 114.21046,72.963446 113.51756,73.656346 C 113.16546,74.008396 112.86146,74.230316 112.70506,74.406346 C 112.54856,74.582376 112.48626,74.630776 112.48626,74.906346 C 112.48626,75.730976 112.78406,77.090326 112.45506,78.406346 C 112.19846,79.432576 112.04226,80.057406 111.79876,81.031346 C 111.57016,81.945626 111.40196,82.837496 111.14256,83.875096 C 111.07156,84.159006 110.93556,84.691496 110.86126,85.218846 C 110.78706,85.746196 110.88406,86.264536 110.86126,86.218846 C 111.24066,86.977636 111.61126,87.961536 111.61126,89.281346 C 111.61126,90.285626 111.76826,90.657766 112.17376,91.468846 C 112.23136,91.583986 112.48316,91.894286 112.76756,92.250096 C 113.05186,92.605906 113.38956,92.988356 113.54876,93.625096 C 113.61046,93.871716 113.77866,94.103366 114.08006,94.406346 C 114.38136,94.709326 114.88476,95.031636 115.08006,95.812596 C 115.14436,96.070026 115.20806,96.138666 115.42376,96.375096 C 115.63946,96.611526 116.00546,96.975946 116.29876,97.562596 C 116.30586,97.576866 116.77696,98.099756 117.11126,98.750096 C 117.27846,99.075266 117.44416,99.520886 117.33006,100.0626 C 117.21586,100.60431 116.78596,101.06901 116.29876,101.3126 C 116.10646,101.40875 115.78936,101.60753 115.58006,101.8126 C 115.37066,102.01767 115.33006,102.18902 115.33006,102.15635 C 115.33006,102.71321 115.28926,103.28943 115.29876,103.78135 C 115.30826,104.27327 115.38256,104.66763 115.42376,104.7501 C 115.69706,105.2967 116.30116,105.88473 116.61126,107.1251 C 116.94736,108.46937 116.59916,109.4234 116.39256,110.2501 C 116.29166,110.6537 116.11196,111.14203 115.89256,111.65635 C 115.67306,112.17067 115.45646,112.65494 115.01756,113.09385 C 114.59676,113.51458 114.38546,114.19469 113.51756,115.0626 C 113.37416,115.20593 113.25806,115.40432 113.08006,115.7501 C 112.90196,116.09588 112.65366,116.58271 112.20506,117.03135 C 111.78716,117.44925 111.34566,117.64362 111.01756,117.8126 C 110.68936,117.98158 110.45346,118.12665 110.23626,118.34385 C 109.72816,118.85196 109.17616,118.98889 108.76756,119.1251 C 108.35886,119.26131 108.08546,119.36964 108.04876,119.40635 C 107.94726,119.50788 107.61606,119.94259 107.26756,120.34385 C 107.09326,120.54448 106.91616,120.75116 106.70506,120.9376 C 106.49386,121.12404 106.28346,121.33206 105.86126,121.4376 C 105.01816,121.64838 104.36096,121.85964 103.64256,122.21885 C 102.67496,122.70263 101.64516,122.75009 100.36126,122.7501 C 100.11246,122.7501 99.444361,122.82919 98.767561,122.8751 C 98.090661,122.92101 97.416661,123.04342 96.642561,122.65635 C 96.193161,122.43167 95.357161,122.37408 94.236261,122.09385 C 93.259561,121.84967 92.676561,121.47737 91.642561,121.21885 C 90.923861,121.03918 90.359961,121.17231 89.298761,121.4376 C 88.626661,121.60563 87.494161,122.25987 85.955061,121.8751 C 85.261361,121.70168 83.933761,121.76004 82.892561,120.71885 C 82.260061,120.08643 82.237261,119.95348 81.173761,119.6876 C 80.594661,119.54282 80.075161,119.30638 79.642561,119.1251 C 79.209861,118.94382 78.850061,118.84385 78.798761,118.84385 C 77.370161,118.84385 76.583761,118.60853 75.767561,118.8126 C 75.125261,118.97315 74.840861,119.27053 74.267561,119.84385 C 74.230761,119.88056 74.122461,120.15398 73.986261,120.5626 C 73.850061,120.97122 73.681861,121.52323 73.173761,122.03135 C 72.658461,122.54669 72.139661,123.19338 71.861261,123.7501 C 71.418961,124.63467 70.532761,125.45564 69.267561,125.78135 C 69.238561,125.82188 69.190061,125.95768 69.111261,126.15635 C 69.032461,126.35502 68.931061,126.59838 68.705061,126.90635 C 68.478961,127.21432 67.967361,127.56261 67.455061,127.5626 C 66.539361,127.5626 65.932661,127.41923 65.486261,127.15635 C 65.039861,126.89347 64.986461,126.78145 64.611261,126.59385 C 64.319161,126.44778 63.999261,126.29653 63.861261,126.28135 C 63.840561,126.27907 63.838061,126.25681 63.830061,126.2501 C 63.829561,126.26795 63.827561,126.28622 63.798761,126.34385 C 63.320161,127.30103 62.500361,127.85244 61.580061,128.3126 C 60.730061,128.7376 59.854061,128.54885 59.361261,128.3751 C 58.868461,128.20135 58.706461,128.14817 58.548761,128.1876 C 57.375161,128.48099 56.915761,128.47287 55.923761,128.96885 C 55.336661,129.26241 54.901961,129.64694 54.236261,130.3126 C 53.851361,130.69752 53.382661,131.6769 52.236261,132.2501 C 52.299061,132.21872 51.732361,132.61706 51.111261,132.8751 C 50.800761,133.00412 50.430961,133.1197 49.986261,133.09385 C 49.541561,133.068 49.037861,132.86422 48.673761,132.5001 C 48.263661,132.09001 48.064061,131.70751 47.861261,131.5001 C 47.782161,131.41916 47.748161,131.41505 47.736261,131.40635 C 47.058761,131.70904 46.417861,131.75507 45.767561,131.8751 C 45.092861,131.99963 44.456861,132.15643 44.017561,132.46885 C 44.061361,132.57548 44.109661,132.6811 44.142561,132.8126 C 44.342861,133.61386 45.131061,133.48869 45.673761,134.03135 C 46.176861,134.53445 46.496461,134.72901 47.048761,135.28135 C 47.689561,135.92213 48.290261,136.35522 49.205061,136.8126 C 50.019361,137.21977 50.275161,137.22648 50.767561,137.71885 C 51.352061,138.30341 51.260561,138.60782 50.923761,139.28135 C 50.570361,139.98825 50.052161,139.92406 49.830061,140.8126 C 49.558161,141.90019 48.781961,142.00239 48.298761,142.96885 C 47.787261,143.99182 48.294661,144.21886 46.892561,144.21885 C 46.085161,144.21885 45.987561,145.59126 45.673761,146.21885 C 45.242861,147.08066 45.277261,146.88046 44.298761,147.1251 C 43.594661,147.30113 44.206161,148.34613 44.298761,148.53135 C 43.668461,148.68894 44.734961,149.74474 44.892561,150.3751 C 45.074761,151.10392 45.507661,151.26157 45.830061,151.90635 C 46.275461,152.79726 45.683161,153.29074 46.455061,154.0626 C 46.779061,154.38667 46.345361,156.18866 46.298761,156.3751 C 46.034961,157.43047 46.409761,157.48797 45.361261,157.7501 C 44.171461,158.04756 43.975161,157.63846 43.673761,158.84385 C 43.485961,159.59516 42.815261,159.98769 42.298761,160.3751 C 41.742261,160.79247 41.413661,161.57274 41.048761,161.9376 C 40.432561,162.55377 39.603061,161.17122 39.517561,161.0001 C 39.156961,160.27908 38.124761,160.85274 37.830061,161.0001 C 37.042561,161.39381 37.510961,161.9783 36.423761,162.2501 C 35.891861,162.38307 35.295361,161.50179 34.423761,161.9376 C 33.926361,162.18632 33.495561,163.08813 33.361261,163.6251 C 33.225361,164.16881 31.950861,164.61155 31.486261,164.84385 C 30.643961,165.26501 30.262261,166.23988 30.111261,166.84385 C 29.949761,167.48972 29.344161,167.92349 29.017561,168.2501 C 28.725561,168.54207 26.880561,168.25009 26.423761,168.2501 C 25.539261,168.2501 24.911961,168.32877 24.705061,169.15635 C 24.506561,169.95036 24.565661,170.62014 24.423761,171.1876 C 24.190661,172.11995 24.424461,172.44524 23.330061,172.71885 C 22.411961,172.94837 21.738961,173.07956 21.017561,172.71885 C 20.259361,172.33976 19.796861,172.09242 19.173761,171.6251 C 18.484261,171.108 17.921161,170.71037 17.330061,170.5626 C 16.329261,170.3124 15.201361,170.33513 14.236261,170.09385 C 13.838961,169.99451 13.115261,170.99222 13.017561,171.1876 C 12.734061,171.75451 12.103061,172.11521 11.767561,172.5626 C 11.353161,173.11511 10.431661,172.73843 10.080061,172.5626 C 9.3454612,172.19534 8.8006612,171.72077 8.3925612,171.3126 C 7.6693612,170.58947 6.9044612,172.26465 6.8300612,172.5626 C 6.6743612,173.1854 6.1201612,173.43876 5.4550612,173.9376 C 4.8470612,174.39357 4.2075612,174.59133 3.7675612,175.03135 C 3.3385612,175.46033 2.7511612,175.64482 2.2050612,175.78135 C 2.0555612,175.81873 1.9216612,175.78136 1.7675612,175.78135 C 0.4736612,176.10482 1.1804612,177.46453 1.2987612,177.9376 C 1.4994612,178.7403 1.8739612,179.02671 2.5175612,179.1876 C 2.9866612,179.30489 3.2000612,180.32382 3.2987612,180.71885 C 3.5020612,181.53198 3.7881612,181.83324 4.2362612,182.28135 C 4.8040612,182.84916 4.6807612,183.6423 4.3612612,184.28135 C 3.9110612,185.1817 4.7467612,185.88562 5.1425612,186.28135 C 5.6404612,186.7793 6.2188612,186.80554 6.3925612,187.5001 C 6.5532612,188.14328 7.9476612,187.72852 8.2362612,187.65635 C 8.9364612,187.48131 9.4725612,187.09726 10.236261,186.90635 C 11.117761,186.68597 10.994961,188.15999 11.142561,188.7501 C 11.326961,189.488 11.791661,190.15726 12.236261,190.7501 C 12.438261,191.01941 11.641261,192.08885 11.767561,192.59385 C 11.926361,193.22931 12.401461,194.00468 12.548761,194.59385 C 12.677261,195.10797 12.236261,196.34443 12.236261,197.0626 C 12.236261,197.71104 12.392561,198.61991 12.392561,199.3751 C 12.392561,200.37507 12.766461,200.99588 13.017561,202.0001 C 13.065361,202.19134 14.741961,203.0811 15.017561,203.21885 C 16.037861,203.729 16.280761,203.77667 16.705061,204.6251 C 17.051661,205.31847 17.652561,205.89889 18.080061,206.46885 C 18.554461,207.10145 18.896961,207.56699 19.330061,208.0001 C 19.734561,208.40463 20.835761,208.61236 21.173761,208.78135 C 21.705161,209.04705 22.903361,209.22937 23.486261,209.3751 C 24.322261,209.5841 24.892261,210.00009 25.798761,210.0001 C 26.852961,210.0001 26.994861,209.86652 27.486261,209.3751 C 27.951561,208.9098 28.368061,208.36832 28.736261,208.0001 C 29.399461,207.33693 30.106261,207.8388 30.580061,208.3126 C 31.196061,208.92861 32.393561,209.32848 33.205061,209.53135 C 34.242761,209.79078 34.262861,209.21415 35.048761,210.0001 C 35.660761,210.61208 35.361261,210.9239 35.361261,211.84385 C 35.361261,212.3676 36.376261,212.60134 36.736261,212.78135 C 37.493561,213.16 36.335961,214.24414 36.267561,214.3126 C 35.701561,214.87854 35.389061,214.98246 35.205061,215.71885 C 35.001961,216.53093 35.372561,217.33511 35.642561,217.8751 C 36.040561,218.67124 36.467161,218.17373 36.736261,219.2501 C 36.840861,219.66832 36.374661,220.66539 36.267561,221.09385 C 36.046561,221.97785 36.105261,222.30663 36.580061,222.78135 C 37.094261,223.2956 37.546161,223.74278 38.267561,224.03135 C 38.869661,224.2722 39.238961,225.4743 39.517561,226.03135 C 39.853361,226.70314 40.713161,226.75624 41.205061,227.1251 C 41.693261,227.49131 41.517561,228.44161 41.517561,229.1251 C 41.517561,230.43424 39.902461,229.71885 38.736261,229.71885 C 37.990061,229.71885 36.846961,229.62152 36.111261,229.4376 C 35.209361,229.21213 34.075461,229.42426 33.486261,229.71885 C 33.172061,229.87597 32.609361,230.87767 32.423761,231.1251 C 31.974261,231.72438 31.476861,231.89382 31.173761,232.5001 C 30.845161,233.15738 30.486461,233.43726 30.111261,234.1876 C 29.943361,234.52351 29.989461,235.57557 30.111261,236.0626 C 30.220061,236.49797 31.719761,236.79236 31.955061,236.96885 C 32.844661,237.63612 31.514261,237.59385 30.892561,237.59385 C 29.846561,237.59385 30.111261,238.45002 30.111261,239.28135 C 30.111261,240.05186 30.111261,240.82334 30.111261,241.59385 C 30.111261,241.93792 29.265861,242.62847 29.017561,243.1251 C 28.617261,243.92568 28.523761,244.64384 28.267561,245.15635 C 28.154961,245.38137 26.779661,245.9628 26.580061,246.0626 C 25.849561,246.42783 25.273561,246.43154 24.861261,246.84385 C 24.096961,247.60818 23.848261,246.61448 23.486261,248.0626 C 23.309161,248.77105 22.991661,249.16281 22.392561,249.3126 C 22.310961,249.33299 22.392561,251.75766 22.392561,251.90635 C 22.392561,252.36297 23.170661,253.15321 23.486261,253.46885 C 23.786261,253.76884 23.642561,255.07706 23.642561,255.6251 C 23.642561,256.08491 24.772861,256.33088 25.173761,256.53135 C 25.359561,256.62424 25.871761,257.93081 26.111261,258.2501 C 26.621961,258.93108 27.628461,259.15281 28.267561,259.3126 C 28.902661,259.47138 29.067561,260.4752 29.330061,261.0001 C 29.654161,261.64846 30.092161,261.70509 30.267561,262.40635 C 30.408961,262.97206 28.849561,262.87509 28.423761,262.8751 C 27.858761,262.8751 27.270061,262.87509 26.705061,262.8751 C 25.763761,262.8751 26.658561,265.00186 26.705061,265.1876 C 26.824261,265.66455 26.072761,266.40427 25.955061,266.8751 C 25.734661,267.75642 26.277461,268.36638 26.111261,269.03135 C 25.915361,269.81487 25.511661,269.99213 25.330061,270.71885 C 25.200761,271.23595 26.538561,271.41943 26.861261,271.5001 C 27.673061,271.70305 27.955061,271.99507 27.955061,272.8751 C 27.955061,273.9616 28.210161,274.19278 28.892561,274.8751 C 29.369161,275.35173 29.515961,276.12354 29.955061,276.5626 C 30.649561,277.25714 31.092461,276.70622 31.330061,277.65635 C 31.508761,278.37151 31.353961,278.97094 31.486261,279.5001 C 31.642061,280.12321 32.634361,280.32208 33.205061,280.7501 C 33.826661,281.21634 34.189761,281.0329 34.423761,281.96885 C 34.607361,282.70344 34.729161,283.31545 34.892561,283.96885 C 35.109061,284.83487 35.267961,285.21805 34.892561,285.96885 C 34.625261,286.50344 34.435461,287.17223 34.423761,287.21885 C 34.332061,287.58572 35.660061,288.14263 35.798761,288.28135 C 36.248161,288.73073 37.273661,288.92353 37.830061,289.0626 C 38.667261,289.2719 39.142861,288.70305 39.673761,288.4376 C 40.463861,288.04256 40.342561,287.81259 41.517561,287.8126 C 42.144261,287.8126 42.649661,288.57686 42.892561,289.0626 C 43.096961,289.4715 44.277461,289.9925 44.611261,290.4376 C 44.802061,290.69196 45.687561,291.22576 45.986261,291.3751 C 46.611961,291.68797 47.165561,291.73651 47.986261,291.53135 C 48.598761,291.37823 48.443561,292.11937 49.080061,292.4376 C 49.882061,292.83863 50.180361,291.29937 50.298761,291.0626 C 50.742061,290.17606 51.400761,291.25834 51.673761,291.53135 C 51.959861,291.81741 52.207361,292.88868 52.455061,293.21885 C 53.013961,293.96411 52.466961,294.19842 53.548761,294.46885 C 54.347861,294.66863 54.630861,294.90636 55.705061,294.90635 C 56.541561,294.90635 56.298761,295.83727 56.298761,296.6251 C 56.298761,297.39494 56.892561,297.52357 57.548761,297.6876 C 58.622361,297.95601 58.767561,297.7695 58.767561,299.0626 C 58.767561,299.68751 60.169361,299.22321 60.611261,298.78135 C 61.338361,298.05422 61.032261,297.60601 62.017561,298.0001 C 62.350161,298.13316 62.755161,299.13147 63.080061,299.3751 C 63.886461,299.97992 64.627861,298.76481 64.923761,298.46885 C 65.481961,297.91065 65.680761,297.7536 66.486261,298.15635 C 66.634661,298.23056 66.486261,300.21952 66.486261,300.46885 C 66.486261,301.66527 66.060461,301.41807 66.798761,302.15635 C 67.503761,302.86129 68.250961,301.69121 68.330061,301.3751 C 68.466061,300.83075 69.525761,300.62509 70.173761,300.6251 C 70.379261,300.6251 70.593261,300.62509 70.798761,300.6251 C 71.425761,300.6251 71.300461,301.87594 71.861261,302.15635 C 72.499361,302.47542 73.573961,301.98753 73.861261,301.84385 C 74.449961,301.54949 73.959861,300.9376 75.423761,300.9376 C 76.161261,300.9376 76.643461,301.28894 77.423761,301.09385 C 77.603461,301.04894 77.633561,300.77919 77.736261,300.6251 C 77.753361,300.59942 77.664461,300.5953 77.548761,300.59385 C 77.158761,300.69913 76.747961,300.76626 76.330061,300.78135 C 76.110261,300.78928 76.023761,300.75865 75.986261,300.7501 C 76.154561,300.69385 77.143861,300.58877 77.548761,300.59385 C 78.471161,300.34484 79.286061,299.83803 79.736261,298.9376 C 80.480961,297.44817 81.027361,296.72702 81.580061,298.9376 C 82.079661,300.93615 83.261661,297.69923 83.423761,297.3751 C 83.927361,296.36786 85.997261,296.75009 87.423761,296.7501 C 89.438461,296.7501 89.882261,296.47913 90.830061,295.53135 C 91.978661,294.38268 92.068461,294.3126 94.205061,294.3126 C 96.179461,294.3126 96.532161,294.03513 96.080061,295.84385 C 95.806561,296.93775 95.296061,298.28675 94.830061,299.21885 C 94.048361,300.78211 93.373161,299.60574 95.142561,301.3751 C 95.580361,301.81291 95.902561,302.18783 96.205061,302.5626 C 96.705761,302.13563 97.364061,301.76747 98.205061,301.3751 C 99.112461,300.95171 100.04416,300.5626 101.01756,300.5626 C 102.56006,300.56262 103.67856,301.47364 104.36126,302.15635 C 105.24176,303.03683 104.87916,302.91618 106.23626,303.1876 C 106.79626,303.2996 107.15926,303.25702 107.70506,303.28135 C 108.22076,303.30434 108.92066,303.51722 109.48626,304.03135 C 109.49846,304.02972 109.56226,304.05214 109.64256,304.0626 C 109.80306,304.08352 110.05806,304.11539 110.33006,304.09385 C 110.87396,304.05076 111.46836,303.8952 111.67376,303.84385 C 112.84196,303.5518 113.99246,303.60511 114.98626,303.40635 C 115.79846,303.24392 116.51866,303.55065 117.01756,303.8751 C 117.51636,304.19955 117.88216,304.58349 118.08006,304.78135 C 118.25586,304.95715 118.33066,305.01463 118.36126,305.03135 C 118.35506,305.01954 118.43296,304.94595 118.48626,304.90635 C 118.47736,304.76575 118.42716,304.53239 118.36126,304.28135 C 118.29216,304.01822 118.19136,303.73626 118.11126,303.5001 C 118.03116,303.26394 117.98136,303.10553 117.92376,302.8751 C 117.88646,302.72604 117.85136,302.77258 117.54876,302.34385 C 117.24616,301.91512 117.04786,301.09744 117.26756,300.21885 C 117.44336,299.51553 117.86436,299.01392 118.23626,298.6876 C 118.60816,298.36128 118.90886,298.17121 119.04876,298.03135 C 119.50696,297.57313 119.80076,297.62264 120.11126,297.5626 C 120.42176,297.50256 120.72556,297.46658 121.04876,297.4376 C 121.37196,297.40862 121.70446,297.36338 121.95506,297.34385 C 122.20556,297.32432 122.44676,297.29122 122.36126,297.3126 C 123.49846,297.02828 124.58196,297.03087 125.20506,296.8751 C 126.31066,296.59867 126.80176,296.33874 127.83006,296.0626 C 127.86946,295.98605 127.90766,295.85238 127.95506,295.6876 C 128.06646,295.30019 128.14256,294.78608 128.14256,294.59385 C 128.14256,293.56558 128.31536,292.56652 128.17376,292.0001 C 128.12086,291.78829 127.97906,291.61005 127.70506,291.2501 C 127.43096,290.89015 127.04956,290.34722 126.86126,289.59385 C 126.58466,288.48752 126.32996,287.53171 126.64256,286.28135 C 126.86276,285.40048 126.83006,284.40701 126.83006,283.2501 C 126.82996,282.51925 127.10526,281.92046 127.36126,281.34385 C 127.61726,280.76724 127.88296,280.23803 128.01756,279.96885 C 128.54416,278.91552 129.21566,278.27065 129.73626,277.7501 C 130.44836,277.03799 131.37206,276.54157 131.95506,276.2501 C 132.70926,275.87297 133.12506,275.22759 134.14256,274.71885 C 134.40346,274.58836 134.46566,274.50201 134.54876,274.28135 C 134.63186,274.06069 134.67376,273.6863 134.67376,273.21885 C 134.67376,272.12918 134.67376,271.05851 134.67376,269.96885 C 134.67376,269.1284 135.14596,268.44494 135.58006,268.03135 C 136.01406,267.61776 136.43576,267.3319 136.70506,267.0626 C 137.14796,266.6197 137.55956,266.3528 137.86126,266.1251 C 138.16296,265.8974 138.36126,265.72928 138.58006,265.4376 C 139.03726,264.82798 139.27396,264.16182 139.51756,263.1876 C 139.73486,262.318 139.88116,261.60816 140.14256,260.5626 C 140.41296,259.4808 140.61956,258.73358 141.11126,257.7501 C 141.69186,256.58889 142.65356,255.92653 143.04876,255.53135 C 143.70176,254.87833 144.57336,254.37845 145.26756,254.03135 C 146.02886,253.65068 146.75956,253.56149 147.36126,253.6876 C 147.96296,253.81371 148.36026,253.99984 148.98626,254.15635 C 150.42506,254.51607 151.06536,255.28964 151.61126,255.5626 C 152.21466,255.86429 152.49366,256.25707 152.79876,256.59385 C 153.10386,256.93063 153.36916,257.19155 153.54876,257.28135 C 154.46396,257.73897 155.10926,258.49558 155.54876,259.2501 C 155.55156,259.25498 155.57716,259.24522 155.58006,259.2501 C 155.68696,259.27229 155.88626,259.28146 156.11126,259.28135 C 156.58756,259.28112 157.23586,259.18771 157.23626,259.1876 C 157.51046,259.11904 157.44436,259.14376 157.51756,259.0001 C 157.59066,258.85644 157.66896,258.457 157.79876,257.9376 C 158.09086,256.76907 158.92706,255.99684 159.39256,255.53135 C 159.84306,255.08078 160.25336,254.42046 160.89256,253.78135 C 161.49546,253.17841 162.24286,253.09824 162.70506,253.03135 C 163.16716,252.96446 163.33846,252.86662 163.29876,252.90635 C 163.65096,252.55412 163.79236,252.11378 164.48626,251.7501 C 165.18016,251.38642 165.94746,251.49822 167.08006,251.78135 C 168.51356,252.13975 169.08846,252.31681 170.33006,252.9376 C 170.75336,253.14929 172.00886,253.0626 173.17376,253.0626 C 174.05126,253.06261 174.75566,253.30531 175.29876,253.5626 C 175.84186,253.81989 176.22956,254.0453 176.67376,254.15635 C 177.66816,254.40496 178.50846,254.77908 179.51756,255.03135 C 180.77566,255.3459 181.36866,255.53731 181.64256,255.46885 C 181.63556,255.47058 181.89036,255.32335 182.14256,255.0626 C 182.39466,254.80185 182.63916,254.5035 182.92376,254.21885 C 183.72026,253.42238 184.31566,253.1323 185.14256,252.71885 C 186.03076,252.27473 186.72196,251.96885 188.20506,251.96885 C 188.96586,251.96886 189.59096,252.19025 190.04876,252.40635 C 190.50656,252.62245 190.80046,252.81304 191.04876,252.8751 C 191.40156,252.9633 191.35156,252.91252 191.45506,252.8126 C 191.55846,252.71268 191.71706,252.41345 191.89256,252.0626 C 192.37976,251.08807 192.70796,250.8321 192.89256,250.09385 C 193.25416,248.64728 194.47936,247.99749 195.01756,247.59385 C 195.53816,247.20337 196.10556,246.95296 196.67376,246.84385 C 197.24196,246.73474 197.78846,246.71885 198.45506,246.71885 C 198.83606,246.71885 199.00606,246.65917 199.29876,246.5001 C 199.59146,246.34103 199.99656,246.02878 200.61126,245.8751 C 201.40696,245.67619 201.46606,245.43069 202.04876,244.84385 C 202.07396,244.69433 202.08016,244.42944 202.08006,244.15635 C 202.07976,243.61016 202.01756,242.99674 202.01756,242.5001 C 202.01756,242.22397 201.93956,242.08041 201.76756,241.6876 C 201.59546,241.29479 201.36126,240.67578 201.36126,239.8751 C 201.36126,239.09125 201.76416,238.43185 202.20506,238.03135 C 202.64586,237.63085 203.12436,237.41541 203.45506,237.2501 C 203.87106,237.04207 204.04226,236.87767 204.33006,236.6251 C 204.61776,236.37253 205.00046,236.02424 205.61126,235.71885 C 205.87716,235.5859 206.95986,234.7453 207.33006,234.3751 C 207.85026,233.85484 208.39256,233.7209 208.92376,233.5626 C 209.45496,233.4043 209.97216,233.30051 210.17376,233.2501 C 211.02856,233.03641 211.82316,233.40571 212.26756,233.7501 C 212.71186,234.09449 213.02186,234.39292 213.04876,234.40635 C 214.20406,234.98404 214.62846,236.0345 215.01756,236.8126 C 215.31896,237.41544 215.68906,237.92725 216.04876,238.53135 C 216.28586,238.53745 216.60986,238.54326 216.95506,238.53135 C 217.69306,238.50588 218.33036,238.4376 218.70506,238.4376 C 219.36826,238.43759 219.95826,238.60615 220.39256,238.90635 C 220.82676,239.20655 221.08466,239.53597 221.39256,239.84385 C 221.84326,240.29456 222.04466,240.79354 222.23626,241.2501 C 222.42786,241.70666 222.57656,242.14946 222.64256,242.28135 C 222.95746,242.91123 223.08926,243.35256 223.17376,243.59385 C 223.25826,243.83514 223.25746,243.89629 223.54876,244.1876 C 223.93816,244.57701 224.02146,244.61847 224.23626,244.6876 C 224.45106,244.75673 224.91646,244.80295 225.70506,245.0001 C 226.21046,245.12647 227.72156,244.91784 228.26756,244.78135 C 228.88996,244.62574 229.29266,244.13728 229.58006,243.5626 C 229.65806,243.40643 229.69086,243.36282 229.76756,243.2501 C 229.76096,243.22908 229.74136,243.20808 229.73626,243.1876 C 229.58106,242.56676 229.26756,241.09844 229.26756,240.09385 C 229.26756,238.98555 229.21216,237.8153 229.51756,236.59385 C 229.69656,235.87746 230.04446,235.4198 230.17376,235.21885 C 230.30306,235.0179 230.36126,235.0098 230.36126,234.4376 C 230.36126,234.12318 230.19196,233.42763 230.11126,232.6876 C 230.07086,232.31758 230.02146,231.91484 230.14256,231.46885 C 230.17036,231.3663 230.21636,231.26033 230.26756,231.15635 C 230.26566,231.14617 230.26936,231.13529 230.26756,231.1251 C 230.04186,229.84449 230.02526,228.46914 230.39256,227.0001 C 230.58006,226.2499 230.78436,225.35397 230.79876,224.5626 C 230.81316,223.77123 230.65006,223.16388 230.20506,222.71885 C 229.25816,221.77204 227.74806,220.55497 226.95506,218.96885 C 226.59966,218.25806 226.37116,217.33899 226.01756,216.59385 C 225.84066,216.22128 225.63916,215.90997 225.48626,215.7501 C 225.33336,215.59023 225.28216,215.59385 225.23626,215.59385 C 224.27106,215.59385 223.15896,215.69197 222.04876,215.6251 C 220.93856,215.55823 219.74756,215.32388 218.86126,214.4376 C 218.33116,213.90746 217.98566,213.40643 217.79876,212.8751 C 217.61186,212.34377 217.64866,211.8357 217.70506,211.4376 C 217.81766,210.64139 217.99546,210.22425 217.73626,209.1876 C 217.50796,208.2744 217.22926,207.5237 216.95506,207.0626 C 216.68076,206.6015 216.48096,206.45191 216.29876,206.40635 C 216.25516,206.39544 215.79966,206.31164 215.29876,206.21885 C 214.79786,206.12606 214.19466,206.03356 213.58006,205.90635 C 212.96536,205.77914 212.36556,205.64769 211.86126,205.5001 C 211.60916,205.4263 211.38916,205.34628 211.17376,205.2501 C 210.95836,205.15392 210.67736,205.16359 210.39256,204.59385 C 209.78646,203.38183 209.76476,202.34435 209.92376,201.5626 C 210.08286,200.78085 210.29876,200.28616 210.29876,199.34385 C 210.29876,197.70756 210.36446,196.75856 210.29876,196.5626 C 210.26586,196.46462 210.29046,196.47972 210.11126,196.3751 C 209.93206,196.27048 209.53666,196.12989 208.89256,195.96885 C 208.35536,195.83456 207.33816,195.53487 206.36126,195.03135 C 205.87286,194.77959 205.39386,194.47076 204.98626,194.0626 C 204.57866,193.65444 204.20506,193.07935 204.20506,192.3751 C 204.20506,192.22985 204.20066,192.24511 204.20506,192.1876 C 204.20936,192.13009 204.22876,192.05965 204.23626,191.96885 C 204.25126,191.78726 204.27386,191.54136 204.29876,191.2501 C 204.34856,190.66759 204.39366,189.90758 204.45506,189.15635 C 204.49096,188.7171 204.51926,188.36508 204.54876,187.96885 C 204.13946,188.24379 203.70286,188.59385 203.01756,188.59385 C 201.89736,188.59385 201.28716,188.72964 200.61126,188.96885 C 199.93546,189.20806 199.16106,189.55795 198.01756,189.84385 C 196.05586,190.33426 193.97836,190.31259 191.67376,190.3126 C 189.33796,190.3126 187.40436,190.36241 185.33006,189.84385 C 185.10526,189.78767 183.88416,189.52592 182.73626,189.1876 C 182.16226,189.01844 181.59956,188.84658 181.11126,188.6251 C 180.86716,188.51436 180.64286,188.38018 180.42376,188.21885 C 180.20466,188.05752 179.95046,187.85675 179.83006,187.3751 C 179.40516,185.67581 179.35776,183.32976 178.95506,181.71885 C 178.71506,180.7589 178.70556,179.72927 178.64256,178.7501 C 178.57946,177.77093 178.44786,176.86073 178.14256,176.2501 C 177.92266,175.81041 177.55016,175.06822 177.08006,174.4376 C 176.60986,173.80698 176.04326,173.35029 175.76756,173.28135 C 175.51216,173.2175 175.43556,173.17104 175.26756,173.09385 C 175.09946,173.01666 174.89956,172.92686 174.67376,172.8126 C 174.22216,172.58407 173.68176,172.30511 173.14256,172.0001 C 172.60326,171.69509 172.05756,171.37861 171.64256,171.09385 C 171.43496,170.95147 171.27976,170.8128 171.11126,170.65635 C 171.02706,170.57812 170.92656,170.48786 170.83006,170.34385 C 170.73346,170.19984 170.55326,169.95092 170.67376,169.46885 C 170.83146,168.83795 171.06496,167.71418 171.14256,166.6876 C 171.22006,165.66102 170.96356,164.78993 170.92376,164.7501 C 170.92756,164.75388 170.57926,164.62351 170.29876,164.0626 C 169.61026,162.68556 169.88146,161.4414 170.23626,160.71885 C 170.41366,160.35758 170.57686,160.08296 170.64256,159.90635 C 170.70816,159.72974 170.71806,159.6771 170.67376,159.5001 C 170.39616,158.38969 170.18946,157.99418 169.89256,157.53135 C 169.59556,157.06852 169.12716,156.50065 168.54876,155.34385 C 167.85586,153.95805 167.30166,152.84673 166.14256,151.6876 C 165.54296,151.08809 164.92536,150.38004 164.79876,149.3751 C 164.67216,148.37016 165.15926,147.32715 166.14256,146.34385 C 166.47526,146.01112 167.19776,145.37715 168.04876,144.7501 C 168.47426,144.43657 168.89656,144.14815 169.33006,143.90635 C 169.76346,143.66455 170.14716,143.43759 170.76756,143.4376 C 173.26476,143.4376 175.09326,143.50673 176.89256,144.40635 C 177.45216,144.68618 178.53416,144.92119 179.54876,145.3126 C 180.05606,145.5083 180.54336,145.75133 180.98626,146.15635 C 181.42916,146.56137 181.79876,147.20309 181.79876,147.90635 C 181.79876,148.78597 181.98786,149.17142 182.33006,149.78135 C 182.67216,150.39128 183.20056,151.20123 183.51756,152.46885 C 183.65526,153.01967 183.76866,153.48119 183.86126,153.8126 C 184.03086,153.68446 184.15026,153.61738 184.45506,153.3126 C 185.12306,152.64459 185.58506,152.24367 185.86126,151.8126 C 186.13746,151.38153 186.33006,150.84719 186.33006,149.65635 C 186.33006,149.08411 186.25246,147.69283 186.26756,146.3751 C 186.27506,145.71624 186.30426,145.08476 186.39256,144.5001 C 186.48076,143.91544 186.51996,143.37269 187.04876,142.84385 C 188.33276,141.55982 190.12246,140.81259 192.54876,140.8126 C 193.04956,140.8126 194.26016,140.4741 195.29876,140.1251 C 195.81806,139.9506 196.31226,139.781 196.73626,139.65635 C 196.94826,139.59403 197.15676,139.53341 197.36126,139.5001 C 197.56576,139.46679 197.74516,139.37954 198.23626,139.6251 C 198.73056,139.87225 198.94416,140.02539 199.33006,140.28135 C 199.21036,139.68384 199.10446,138.94222 198.92376,138.03135 C 198.81456,137.48071 198.70106,136.93773 198.58006,136.53135 C 198.45906,136.12497 198.23256,135.80891 198.39256,135.96885 C 197.29986,134.87624 196.34406,133.34064 195.58006,131.8126 C 195.49476,131.64217 194.95296,130.76917 194.39256,130.0626 C 194.11226,129.70932 193.82896,129.38972 193.58006,129.15635 C 193.33106,128.92298 193.07386,128.81887 193.17376,128.84385 C 191.95356,128.53879 191.15096,127.89114 190.61126,127.2501 C 190.07156,126.60906 189.75496,126.05008 189.23626,125.53135 C 187.75126,124.04638 187.41846,123.16622 186.79876,120.6876 C 186.73876,120.44743 186.70766,120.25122 186.61126,119.78135 C 186.51486,119.31148 186.37166,118.70237 186.23626,118.09385 C 186.10086,117.48533 185.95686,116.89737 185.83006,116.4376 C 185.76986,116.21957 185.71656,116.02646 185.67376,115.90635 C 185.29276,115.54452 184.31916,114.9351 183.48626,114.28135 C 183.05926,113.94621 182.67366,113.58185 182.39256,113.03135 C 182.25196,112.7561 182.12246,112.41618 182.17376,112.03135 C 182.22506,111.64652 182.45106,111.28532 182.70506,111.03135 C 183.08406,110.65232 183.79636,110.08791 184.39256,109.40635 C 184.69056,109.06557 184.93946,108.70756 185.04876,108.46885 C 185.10346,108.3495 185.11316,108.28257 185.11126,108.2501 C 185.10706,108.24166 184.92176,107.94307 184.64256,107.6251 C 184.36326,107.30713 183.98966,106.92309 183.64256,106.5626 C 183.29536,106.20211 182.94586,105.85558 182.67376,105.5626 C 182.53766,105.41611 182.43376,105.28378 182.33006,105.15635 C 182.22626,105.02892 182.11276,105.0686 181.98626,104.5626 C 181.72326,103.51066 181.53286,103.10437 181.23626,102.71885 C 180.93966,102.33333 180.43996,101.92258 179.64256,101.1251 C 179.60346,101.08604 178.73006,100.65651 177.83006,100.2501 C 176.92996,99.843686 175.77596,99.315046 175.45506,98.031346 C 174.94906,96.007346 174.76746,95.312536 174.14256,92.812596 C 173.98896,92.198376 173.58306,91.430526 173.20506,90.500096 C 172.82696,89.569666 172.53296,88.406916 172.86126,87.093846 C 173.16596,85.875206 173.67466,85.081096 174.01756,84.468846 C 174.36036,83.856596 174.54876,83.439896 174.54876,82.531346 C 174.54876,80.352026 174.54876,78.179436 174.54876,76.000096 C 174.54876,73.609406 175.72476,72.230366 177.01756,70.937596 C 178.01286,69.942206 178.89606,68.621546 180.08006,67.437596 C 181.11096,66.406666 181.73366,65.377676 183.14256,63.968846 C 183.28966,63.821676 183.38596,63.721846 183.42376,63.687596 C 184.17696,62.207346 185.15606,60.945796 185.48626,59.625096 C 185.68526,58.828926 186.11986,57.998676 186.39256,57.062596 C 186.66516,56.126516 186.72166,55.252166 186.42376,54.656346 C 186.19776,54.204266 186.04756,53.643186 185.86126,52.937596 C 185.67496,52.232006 185.49296,51.419166 185.33006,50.593846 C 185.16706,49.768526 185.01256,48.925696 184.92376,48.218846 C 184.84686,47.607006 184.81676,47.158306 184.86126,46.687596 C 184.84906,46.680896 184.84246,46.662546 184.83006,46.656346 C 183.98096,46.231836 182.97856,46.380966 182.20506,46.187596 C 180.99506,45.885096 180.85316,46.242016 180.20506,45.593846 C 179.54256,44.931346 179.42986,44.715626 178.51756,44.031346 C 178.02406,43.661226 177.76236,42.708476 177.58006,42.343846 C 177.08306,41.349986 176.92286,40.651936 176.67376,39.406346 C 176.54626,38.768796 175.61356,38.508486 174.95506,38.343846 C 174.61036,38.257696 174.43206,37.064626 174.36126,36.781346 C 173.70576,36.617486 174.80636,35.436806 174.64256,34.781346 C 174.56546,34.472986 173.02916,34.245196 172.79876,34.187596 C 171.86456,33.954066 172.09516,33.608996 171.42376,32.937596 C 170.91116,32.424986 170.87866,31.875096 169.89256,31.875096 C 169.72116,31.875096 168.52676,30.665596 168.33006,30.468846 C 167.78106,29.919886 167.36816,29.456676 166.64256,29.093846 C 166.13306,28.839116 165.70506,28.390126 165.70506,27.718846 C 165.70506,26.641106 165.95076,26.527096 165.42376,26.000096 C 165.06536,25.641706 164.66086,25.066266 164.33006,24.625096 C 163.77696,23.887706 164.02036,23.409216 163.39256,22.781346 C 162.89056,22.279396 163.31276,21.767326 163.86126,21.218846 C 164.33206,20.748026 164.55816,20.396946 164.95506,20.000096 C 165.42586,19.529276 165.77696,19.303196 166.17376,18.906346 C 166.76956,18.310596 166.69496,17.741236 166.48626,16.906346 C 166.25826,15.994196 166.64256,15.027246 166.64256,14.156346 C 166.64256,13.275336 166.33006,12.929316 166.33006,12.000096 C 166.33006,10.978596 166.63206,10.916786 167.11126,10.437596 C 167.52266,10.026156 167.58006,9.2300258 167.58006,8.5938458 C 167.58006,7.9197558 167.12666,7.4059258 166.79876,6.7500958 C 166.48396,6.1204158 166.66206,5.2970358 166.79876,4.7500958 C 166.91806,4.2729758 166.34586,3.2504758 166.17376,2.9063458 C 165.76766,2.0940858 165.96896,1.8508058 165.26756,1.5000958 C 164.60706,1.1698558 163.80276,1.2042158 163.11126,1.0313458 C 163.04226,1.0140858 162.97186,0.99863579 162.89256,1.0000958 z "
     style="fill:#f4e2ba;fill-opacity:1;fill-rule:evenodd;stroke:#7c7a75;stroke-width:2;stroke-linecap:butt;stroke-linejoin:miter;stroke-miterlimit:2;stroke-dasharray:none;stroke-opacity:1"
     id="path4348" />
</svg>
