<?xml version="1.0" encoding="UTF-8" standalone="no"?>
<!-- Created with Inkscape (http://www.inkscape.org/) -->
<svg
   xmlns:dc="http://purl.org/dc/elements/1.1/"
   xmlns:cc="http://creativecommons.org/ns#"
   xmlns:rdf="http://www.w3.org/1999/02/22-rdf-syntax-ns#"
   xmlns:svg="http://www.w3.org/2000/svg"
   xmlns="http://www.w3.org/2000/svg"
   xmlns:sodipodi="http://sodipodi.sourceforge.net/DTD/sodipodi-0.dtd"
   xmlns:inkscape="http://www.inkscape.org/namespaces/inkscape"
   version="1.0"
   width="325.1571"
   height="177.80574"
   id="svg2"
   sodipodi:version="0.32"
   inkscape:version="0.46"
   sodipodi:docname="Regione_thumb_Emilia-Romagna.svg"
   inkscape:output_extension="org.inkscape.output.svg.inkscape">
  <metadata
     id="metadata9092">
    <rdf:RDF>
      <cc:Work
         rdf:about="">
        <dc:format>image/svg+xml</dc:format>
        <dc:type
           rdf:resource="http://purl.org/dc/dcmitype/StillImage" />
      </cc:Work>
    </rdf:RDF>
  </metadata>
  <sodipodi:namedview
     inkscape:window-height="667"
     inkscape:window-width="640"
     inkscape:pageshadow="2"
     inkscape:pageopacity="0.0"
     guidetolerance="10.0"
     gridtolerance="10.0"
     objecttolerance="10.0"
     borderopacity="1.0"
     bordercolor="#666666"
     pagecolor="#ffffff"
     id="base"
     showgrid="false"
     inkscape:zoom="1.7270064"
     inkscape:cx="162.87741"
     inkscape:cy="88.760722"
     inkscape:window-x="132"
     inkscape:window-y="67"
     inkscape:current-layer="svg2" />
  <defs
     id="defs5">
    <inkscape:perspective
       sodipodi:type="inkscape:persp3d"
       inkscape:vp_x="0 : 88.90287 : 1"
       inkscape:vp_y="0 : 1000 : 0"
       inkscape:vp_z="325.1571 : 88.90287 : 1"
       inkscape:persp3d-origin="162.57855 : 59.26858 : 1"
       id="perspective9094" />
  </defs>
  <path
     d="M 66.915102,2.4582764 C 66.966629,2.9528201 67.003822,3.4571618 66.884786,3.7829814 C 66.725265,4.2198354 66.587536,4.393656 66.491358,4.7765102 C 66.32835,5.4247967 66.323895,5.6753345 66.339973,5.7700389 C 66.356051,5.8647433 66.423269,6.0411169 66.763717,6.4926052 C 67.184458,7.0505806 67.252353,7.6573629 67.278311,8.1183795 C 67.304171,8.5793961 67.289062,8.9441865 67.338845,9.1420155 C 67.392407,9.3551815 67.534106,9.7147595 67.157241,10.16565 C 66.96876,10.391091 66.664827,10.503532 66.461043,10.526933 C 66.257258,10.550335 66.114977,10.525431 66.00708,10.496827 C 65.575201,10.382411 65.386042,10.218899 65.129277,10.045223 C 64.702338,9.7564185 64.30581,9.4765155 64.069967,9.3226565 C 63.974758,9.4838175 63.827537,9.7145865 63.676442,10.015116 C 63.271392,10.821028 62.831086,11.54843 62.223608,12.152708 C 61.618938,12.754143 60.750627,12.957464 60.10489,12.784953 C 59.459153,12.612443 59.035991,12.2335 58.742906,11.941959 C 58.224437,11.426297 57.916436,10.920144 57.683498,10.526933 C 57.450561,10.133723 57.318449,9.8627415 57.078151,9.6237265 C 56.258267,8.8081605 56.225821,8.9439165 54.989749,8.329128 C 54.867711,8.2684517 54.814634,8.2529599 54.717294,8.2087003 C 54.714388,8.2674112 54.717294,8.2584128 54.717294,8.329128 C 54.717294,9.6049485 54.671578,9.8932625 54.898898,10.797896 C 55.002534,11.210327 55.052899,11.573238 55.050284,11.911852 C 55.047572,12.250466 55.055901,12.589581 54.717294,12.995702 C 54.54799,13.198762 54.201731,13.405619 53.869807,13.417199 C 53.537882,13.428779 53.284314,13.299382 53.11317,13.176343 C 52.911904,13.031666 52.833064,12.835591 52.719646,12.664526 C 52.693689,12.658687 52.692333,12.670547 52.659111,12.664526 C 52.454068,12.627386 52.141321,12.573145 51.811624,12.544098 C 51.481927,12.515051 51.125499,12.504251 50.843067,12.483884 C 50.701852,12.473701 50.589402,12.463883 50.479859,12.453777 C 50.370315,12.443671 50.303872,12.440116 50.11665,12.393563 C 49.123492,12.146571 48.251016,11.811917 47.604505,11.490355 C 46.780166,11.0804 46.132008,10.718192 45.455471,10.045223 C 45.092166,9.6838825 45.027176,9.3165965 44.971193,8.9914805 C 44.915211,8.6663642 44.909883,8.3480207 44.910658,8.0280587 C 44.912208,7.3881443 44.971193,6.7464476 44.971193,6.4323913 C 44.971193,5.4849624 44.823876,5.4428608 44.184241,4.8066171 C 43.939971,4.5636421 43.788779,4.4390909 43.730278,4.3851201 C 43.680204,4.4092634 43.596133,4.4668664 43.397289,4.5657616 C 43.317189,4.605628 43.182656,4.7440525 42.943326,5.0775795 C 42.703899,5.4111065 42.37488,5.9322791 41.73263,6.2517498 C 41.349373,6.4423435 41.250483,6.6054893 40.794293,6.8538884 C 40.338103,7.1022874 39.669314,7.123579 38.94803,6.9442092 C 38.395856,6.8069216 38.212218,6.5152071 38.040008,6.2818567 C 37.867702,6.0485063 37.737528,5.7887871 37.616265,5.5592904 C 37.494905,5.3297937 37.398436,5.1181684 37.313591,4.9571517 C 37.279304,4.8921304 37.253056,4.8446048 37.22274,4.8066171 C 36.841226,4.4270771 36.354042,4.3316598 35.921291,4.1743715 C 35.988605,4.3856307 36.040811,4.4695543 36.102895,4.7162963 C 36.371088,5.7833534 36.155391,6.6113855 36.314718,7.2452785 C 36.536808,8.1287844 36.565478,8.7930638 36.345034,9.3527635 C 36.124494,9.9124635 35.718184,10.187019 35.648836,10.255971 C 35.648545,10.256308 35.195358,10.526808 35.194873,10.526933 C 35.194292,10.527059 34.862562,10.527011 34.861884,10.526933 C 34.861206,10.526856 34.696454,10.511201 34.65006,10.496827 C 34.603666,10.482452 34.587491,10.479254 34.55921,10.46672 C 34.445985,10.416574 34.411795,10.3703 34.377605,10.346292 C 34.309322,10.298265 34.263025,10.287995 34.226317,10.255971 C 34.152803,10.191932 34.098758,10.096843 34.014397,10.015116 C 33.845674,9.8516625 33.617191,9.6556445 33.409049,9.4430845 C 33.200906,9.2305245 32.992182,9.0051035 32.834017,8.8409455 C 32.675754,8.6767884 32.502964,8.4816184 32.591877,8.5699835 C 32.26499,8.2448575 32.153702,8.1805587 32.168134,8.1785934 C 32.170362,8.180366 32.07893,8.1928327 31.804925,8.329128 C 30.867459,8.7954049 29.903939,9.0050645 28.86894,9.2624425 C 27.990362,9.4809275 27.15227,9.6893445 26.326479,9.8946885 C 25.299712,10.150004 25.421459,10.132538 24.66182,10.888217 C 24.435178,11.113638 24.176186,11.944483 23.784017,12.724739 C 23.504589,13.280643 23.093146,13.636011 22.724707,13.959124 C 22.356171,14.282236 21.989379,14.570078 21.907439,14.651583 C 21.951605,14.607613 21.685349,15.047338 21.514011,15.494577 C 21.342577,15.941817 21.192354,16.443076 21.120487,16.728961 C 20.967552,17.337584 20.805125,17.741017 20.666524,18.083773 C 20.527827,18.42653 20.407532,18.722638 20.273,19.257944 C 19.960253,20.502203 19.667652,20.997142 19.667652,21.967567 C 19.667652,22.625402 19.414084,23.132932 19.213689,23.533128 C 19.013198,23.933324 18.854936,24.237861 18.789946,24.49655 C 18.631781,25.125587 18.305377,25.544415 18.002994,25.941679 C 17.700513,26.338946 17.403167,26.713437 17.24626,27.025528 C 16.736412,28.03979 16.373688,28.309846 15.97503,29.102906 C 15.476901,30.093882 14.718231,30.624034 14.310372,31.02975 C 13.800233,31.537184 13.431019,31.689569 13.372034,31.692102 C 13.361186,31.756787 13.345883,31.932351 13.341815,32.173813 C 13.367191,32.172233 13.453393,32.401171 13.644489,32.625417 C 13.895248,32.919772 14.22572,33.161513 14.491976,33.67915 C 14.542051,33.69839 14.735374,33.869619 14.976254,34.010326 C 15.297331,34.197934 15.678942,34.405002 15.97503,34.552251 C 16.98446,35.054261 17.646952,35.703473 18.124063,36.178026 C 18.394581,36.447167 18.668295,36.629774 19.001769,36.900592 C 19.335243,37.17141 19.721988,37.550574 20.000642,38.104869 C 20.316294,38.733039 20.330726,39.381865 20.303316,39.971499 C 20.275809,40.561132 20.16394,41.09797 20.061176,41.506952 C 19.898846,42.152705 19.555009,42.599636 19.213689,43.042406 C 18.872273,43.485175 18.536378,43.866642 18.335887,44.066042 C 17.746132,44.652659 17.507093,45.522668 16.640913,46.384275 C 16.210002,46.81293 15.688047,47.723518 14.945939,48.461653 C 14.913879,48.493552 14.931023,48.472531 14.91572,48.49176 C 14.959305,48.546117 15.099455,48.734793 15.369682,49.003578 C 16.020358,49.650805 16.635973,50.218126 16.913368,51.321812 C 17.096328,52.050053 17.43416,52.460991 17.730539,53.640046 C 18.016263,54.776951 17.981104,55.834528 17.730539,56.83138 C 17.44404,57.971417 17.162093,58.661333 16.429089,59.39047 C 15.895318,59.921392 15.223818,60.17826 14.613046,60.233464 C 14.002177,60.288668 13.442836,60.168288 12.978606,60.052822 C 12.338197,59.893559 11.927335,59.59457 11.67706,59.450683 C 11.451386,59.32093 11.3185,59.251872 10.980958,59.239935 C 11.007884,59.260726 10.854562,59.339582 10.678284,59.571111 C 10.443216,59.87982 10.312751,60.235737 9.8913323,60.654961 C 9.4595497,61.084425 8.7803978,61.101208 8.3779626,60.986137 C 7.9754304,60.871066 7.6790521,60.669181 7.409406,60.474319 C 7.3356988,60.421061 7.2947289,60.377399 7.2278016,60.323784 C 7.3114849,60.760629 7.4396249,61.27024 7.4396249,61.859238 C 7.4396249,62.681817 7.1870254,63.307444 6.9553466,63.665654 C 6.7236679,64.023864 6.6492828,64.040348 6.5619189,64.38822 C 6.3561007,65.206878 6.3803146,66.194376 6.3803146,67.308592 C 6.3803146,67.615182 6.5595944,68.485692 6.6829885,69.145115 C 6.801443,69.111607 6.8969427,69.081539 7.0461972,69.054794 C 7.3327931,69.003406 7.7210875,68.953934 8.1660424,69.175222 C 8.3034806,69.243567 8.5633443,69.238885 8.8924598,69.115008 C 9.2215754,68.991132 9.598925,68.713319 9.5886583,68.723618 C 9.8941411,68.419765 10.214152,68.196925 10.61775,68.091373 C 11.02125,67.98582 11.476181,68.050206 11.79813,68.181693 C 12.441929,68.444669 12.776953,68.85421 13.06936,69.145115 C 13.583276,69.656297 14.301364,70.189917 14.945939,70.831103 C 15.665576,71.546907 15.974158,72.064572 16.429089,72.517092 C 16.764307,72.850561 17.306505,72.840657 18.305668,73.089123 C 19.297954,73.335894 19.664262,73.331636 20.394069,72.968696 C 20.9784,72.67806 21.327467,72.53742 21.54423,72.426771 C 21.760993,72.316122 21.892717,72.230666 22.240429,71.884846 C 22.568382,71.558612 22.736911,71.255385 23.208985,70.951531 C 23.680963,70.647678 24.268489,70.560141 25.025029,70.560141 C 25.710961,70.560131 25.94632,70.923293 26.144874,71.16228 C 26.343428,71.401266 26.492005,71.636245 26.629152,71.884846 C 26.903351,72.382049 27.16922,72.959167 27.173966,72.968696 C 27.429471,73.477055 27.502984,73.557327 27.56749,73.600941 C 27.631899,73.644555 27.938157,73.753335 28.657116,73.932117 C 29.223334,74.072941 30.482942,73.90201 31.593005,73.90201 C 32.365719,73.90201 33.05291,74.269257 33.439364,74.714898 C 33.825819,75.160538 33.98195,75.613741 34.135466,75.919175 C 34.656453,76.955595 34.623522,77.800805 34.831665,78.628799 C 35.038839,79.453189 34.7012,79.973764 34.468456,80.435214 C 34.235615,80.896665 33.997737,81.344627 33.984178,81.398636 C 33.853616,81.918142 33.634625,82.382097 33.409049,82.783555 C 33.183472,83.185013 32.948016,83.550169 32.864236,83.71687 C 32.296661,84.846068 32.053457,85.088956 31.593005,86.004997 C 31.275803,86.635971 30.79782,87.026166 30.382309,87.329702 C 29.966799,87.633237 29.590902,87.876058 29.534822,87.93184 C 28.917271,88.546089 28.9718,88.576514 28.717651,89.587722 C 28.565685,90.192153 28.361319,90.568909 28.293908,90.761892 C 28.226399,90.954875 28.186398,90.996543 28.293908,91.424244 C 28.366259,91.712385 28.991171,92.343089 29.262464,92.477987 C 29.618602,92.655151 30.086125,92.264001 30.927122,91.845741 C 31.276384,91.672036 31.470579,91.543786 31.804925,91.333924 C 32.139174,91.124061 32.598464,90.895721 33.25776,90.731785 C 33.918413,90.567493 34.670206,90.119607 35.376478,89.768363 C 36.561216,89.179096 37.350783,89.01569 38.766426,89.01569 C 39.686651,89.01569 39.871646,88.57134 40.854828,88.082375 C 42.18853,87.419059 43.592065,87.822193 44.275091,87.992054 C 45.274739,88.240656 45.956796,88.512331 46.787237,88.925369 C 47.423966,89.242017 47.844029,89.805368 48.028248,90.310288 C 48.212371,90.815208 48.264964,91.252158 48.361141,91.634993 C 48.763673,93.236344 47.84645,94.405197 47.634724,94.826328 C 47.247107,95.597393 47.280523,95.765269 47.513654,96.692957 C 47.508618,96.673043 47.512492,96.74267 47.755793,96.843492 C 47.999095,96.944314 48.380125,96.994027 48.663815,96.994027 C 49.750826,96.994017 50.028415,96.857288 50.782533,96.482209 L 50.843067,96.602637 C 51.015664,96.456302 51.181772,96.287174 51.357662,96.18114 C 51.913807,95.845772 52.586082,95.440885 52.628892,95.398359 C 52.961494,95.067491 53.053217,94.933499 53.11317,94.736007 C 53.173027,94.538515 53.203924,94.184477 53.203924,93.561836 C 53.203924,92.242787 53.877458,91.13805 54.142262,90.611357 C 54.407646,90.083286 54.610849,89.749403 54.717294,89.497401 C 54.823738,89.245399 54.898898,89.051837 54.898898,88.533979 C 54.898898,88.111547 55.076725,87.869719 55.201572,87.721092 C 55.326419,87.572465 55.43974,87.485362 55.564781,87.389916 C 55.814959,87.199023 56.099037,87.034606 56.382049,86.878098 C 56.947977,86.565082 57.551387,86.281441 57.744033,86.185638 C 58.460765,85.829153 59.135752,85.343261 59.590393,84.89104 C 60.255404,84.229526 61.050782,84.163117 61.769645,84.048046 C 62.488411,83.932975 63.20863,83.86332 63.434303,83.807191 C 64.292057,83.593908 65.177318,83.135984 66.188685,82.63302 C 67.348822,82.056008 68.298782,82.005043 68.731146,81.790026 C 69.445553,81.434697 70.15996,81.454987 70.759013,81.519064 C 71.358065,81.583141 71.894064,81.669599 72.332917,81.669599 C 72.90175,81.669599 73.413245,82.059187 73.664682,82.422272 C 73.91612,82.785357 74.011038,83.134693 74.088426,83.476015 C 74.243201,84.158647 74.295213,84.900964 74.300346,84.921147 C 74.442046,85.485057 74.854554,85.893982 75.329437,86.36628 C 75.583199,86.618706 76.434561,86.833376 77.236235,87.630771 C 77.779789,88.171424 77.913256,88.790336 78.053503,89.346866 C 78.193653,89.903396 78.289056,90.465071 78.325861,90.611357 C 78.64994,91.900695 78.621852,92.01304 79.082594,92.929591 C 79.422073,93.605056 79.75884,94.144196 80.17222,94.555365 C 80.577368,94.958422 81.698375,95.439189 82.260622,95.579001 C 83.498728,95.886872 84.065624,96.419249 84.803083,96.602637 C 85.809026,96.852799 86.486919,97.292321 87.103405,97.445631 C 87.772872,97.61211 88.222572,98.028665 88.55624,98.378945 C 88.889908,98.729226 89.14706,99.087019 89.252439,99.191829 C 89.189192,99.128959 89.345226,99.222889 89.555113,99.312259 C 89.764902,99.401629 90.023603,99.495629 90.311749,99.583219 C 90.887943,99.758409 91.492613,99.906979 91.764584,99.974609 C 92.470662,100.1502 92.908837,100.53343 93.368804,100.90793 C 93.828675,101.28243 94.254937,101.68194 94.428114,101.81113 C 95.234438,102.41267 96.071755,103.03505 96.819287,103.4068 C 97.207775,103.60001 97.173779,103.68057 97.243031,103.76808 C 97.312185,103.8556 97.362163,103.94554 97.424635,104.03904 C 97.549385,104.22606 97.684499,104.45332 97.818063,104.67129 C 97.951627,104.88926 98.074827,105.1067 98.181271,105.27343 C 98.287716,105.44016 98.450143,105.60106 98.332657,105.48418 C 98.892289,106.04089 99.3817,106.32445 99.997315,106.92931 C 100.02085,106.9151 100.18899,106.9454 100.51191,106.8992 C 100.72712,106.8684 100.94737,106.80118 101.20801,106.74867 L 101.20801,106.68845 C 101.3778,106.64625 101.81413,106.52909 102.20688,106.38739 C 102.59954,106.24569 103.04072,105.94934 102.87277,106.11642 C 103.16876,105.82192 103.59154,105.42762 104.20454,105.24332 C 104.81744,105.05902 105.58715,105.14821 106.32326,105.51428 C 107.05645,105.87894 107.6957,106.21193 108.41166,106.56803 C 108.99521,106.85828 109.86565,107.29173 110.56069,107.98305 C 111.2905,108.70907 111.6905,108.89615 112.46748,109.66904 C 112.42331,109.62509 112.60085,109.75336 112.80047,109.87979 C 112.99999,110.00622 113.23496,110.16861 113.49657,110.33139 C 113.75818,110.49417 114.03867,110.6579 114.28352,110.84321 C 114.52837,111.02853 114.76548,111.16978 114.97972,111.59588 C 115.33886,112.31041 115.40618,112.38827 116.1601,112.9507 C 116.89117,113.49606 117.54,114.08244 118.18806,114.72701 C 118.74053,115.27657 119.11885,115.65292 119.85272,116.38289 C 120.5096,117.03625 120.79135,117.5575 121.42663,118.40005 C 121.67235,118.726 122.59645,119.28915 123.33352,120.26668 C 123.40568,120.36241 123.67988,120.61281 124.02962,120.89893 C 124.37937,121.18504 124.83023,121.5283 125.11925,122.1032 C 125.38686,122.63552 125.87976,123.40158 126.4208,123.93973 C 126.99583,124.51177 127.3818,124.92581 128.08545,125.62571 C 128.40643,125.94495 129.4302,126.56161 129.71989,126.61924 C 130.62801,126.7999 131.4878,127.04518 132.23213,126.8601 C 132.58934,126.77125 132.65665,126.69688 132.77695,126.55903 C 132.89715,126.42118 133.06161,126.14325 133.29145,125.68593 C 133.62773,125.017 134.18474,124.51638 134.65353,124.36122 C 135.12221,124.20606 135.34391,124.2135 135.83391,123.96983 C 135.98394,123.89522 136.32584,123.67058 136.71171,123.3978 C 137.09758,123.12502 137.56055,122.79532 138.16454,122.64513 C 138.34198,122.60098 138.66868,122.40206 139.16332,122.19352 C 139.65796,121.98499 140.37353,121.81707 141.16097,122.01288 C 141.19351,122.02097 141.87247,122.08664 142.52305,122.16342 C 143.17363,122.24019 143.88629,122.25501 144.55092,122.91609 C 144.94589,123.30894 145.82505,123.98632 146.21567,124.18058 C 146.83555,124.48891 147.15827,124.92957 147.4869,125.26443 C 147.81544,125.5993 148.12189,125.80621 148.12247,125.80636 C 148.51599,125.90421 148.98594,126.08418 149.48455,126.34828 C 149.98307,126.61238 150.54057,126.88359 150.87685,127.55256 C 151.08528,127.96734 151.04209,127.91413 151.20974,128.00416 C 151.3774,128.09419 151.87243,128.30201 152.3599,128.78694 C 152.42945,128.85607 152.86045,129.062 153.38899,129.26865 C 153.91754,129.47531 154.55707,129.70796 155.11428,130.26218 C 155.38587,130.53239 155.5943,130.72189 155.74985,130.80411 C 155.9054,130.88633 155.98105,130.9122 156.29466,130.83421 C 156.46813,130.79107 156.44024,130.80836 156.47627,130.80411 C 156.5123,130.79986 156.55085,130.80887 156.59734,130.80411 C 156.69032,130.79458 156.81982,130.7877 156.96055,130.774 C 157.24211,130.74661 157.60512,130.69291 157.95942,130.65357 C 158.26868,130.61923 158.54927,130.56825 158.77659,130.53314 C 158.86899,130.28069 158.91752,129.9489 159.01873,129.78047 C 159.22852,129.43136 159.3554,129.25386 159.41225,129.0278 C 159.56441,128.42212 159.77692,127.95695 159.98729,127.61277 C 160.19766,127.26859 160.36822,127.03556 160.5321,126.70956 C 160.94277,125.8927 161.4563,125.0978 162.19685,124.36122 C 162.49972,124.05994 162.91649,123.71427 163.55884,123.54834 C 164.20119,123.38241 165.0785,123.55457 165.67756,124.15047 C 166.3846,124.85379 166.78491,125.45021 167.312,126.49882 C 167.46822,126.80955 167.67763,127.24877 167.88712,127.67299 C 168.09653,128.0972 168.34709,128.52199 168.40162,128.57619 C 168.58468,128.75826 168.64405,128.84378 168.76483,128.99769 C 168.88561,129.1516 169.02353,129.33095 169.15836,129.4794 C 169.24184,129.57143 169.30374,129.60117 169.37018,129.66004 C 169.52757,129.58075 169.71837,129.50673 170.00584,129.29876 C 170.19229,129.16381 170.36992,129.00516 170.64141,128.87726 C 170.9129,128.74937 171.31872,128.61666 171.76135,128.72673 C 172.56148,128.9257 173.08488,129.37132 173.33526,129.56972 C 173.58553,129.76812 173.48703,129.75036 173.84975,129.75036 C 175.05328,129.75036 175.40235,129.5976 176.36199,129.35897 C 177.17481,129.15684 178.43238,128.6966 179.54002,128.69662 C 180.59546,128.69662 181.66271,128.69661 182.71815,128.69662 C 183.13685,128.69662 183.7393,128.76388 184.26174,128.75684 C 184.22997,128.71872 183.98047,128.50716 183.5051,128.03427 C 183.43178,127.96141 183.11535,127.75216 182.74837,127.49234 C 182.38138,127.23253 181.92199,126.9021 181.62852,126.31817 C 181.47462,126.01214 181.23422,125.55051 181.14424,124.93326 C 181.05417,124.316 181.21688,123.50619 181.81013,122.91609 C 182.21963,122.50868 182.74875,121.75677 183.74724,121.26021 C 184.4846,120.89348 185.54391,120.46658 185.83564,120.17636 C 186.18238,119.83147 186.8379,118.98542 187.77275,118.52048 C 188.40367,118.20671 188.93948,118.21733 189.40719,118.12909 C 189.6411,118.08497 189.86067,118.0154 189.95201,117.97855 C 190.18572,117.5409 190.50699,117.04652 191.04163,116.65385 C 191.33869,116.43569 191.74161,116.23222 192.22211,116.23235 C 192.70251,116.23249 193.1743,116.45696 193.52356,116.80438 C 194.08842,117.3662 194.18247,117.97295 194.31051,118.30973 C 194.33424,118.37202 194.32097,118.35892 194.34083,118.40005 C 194.73387,118.388 195.0841,118.36728 195.158,118.33984 C 195.25389,118.30424 195.39355,118.22601 195.76335,117.85813 C 196.01711,117.6057 196.20268,116.75878 197.00436,115.96139 C 196.89075,116.07437 197.04126,115.91409 197.15565,115.75064 C 197.27003,115.5872 197.41929,115.39371 197.57939,115.17861 C 197.73949,114.96351 197.92274,114.71809 198.1242,114.51626 C 198.32566,114.31442 198.48731,114.00446 199.18361,114.00444 C 199.43108,114.00444 199.88145,113.97361 200.42452,114.12487 C 200.96759,114.27612 201.59512,114.70751 201.93789,115.38936 C 202.26033,116.03087 202.67099,117.03402 202.90645,117.34631 C 203.19498,117.72901 204.02533,118.45821 204.48036,119.36347 C 204.83824,120.07542 204.98187,120.36558 205.50945,120.62796 C 205.84098,120.79286 206.21252,121.0036 206.56885,121.2 C 206.92509,121.39639 207.29459,121.55361 207.44656,121.59139 C 207.64686,121.64118 208.15089,121.78809 208.68757,121.86235 C 209.22415,121.93661 209.82679,121.83767 209.71666,121.89245 C 209.61283,121.94409 209.79676,121.83538 209.9588,121.71181 C 210.12074,121.58824 210.32414,121.41929 210.53383,121.26021 C 210.74353,121.10113 210.95099,120.94347 211.1695,120.80861 C 211.27865,120.74117 211.38829,120.68715 211.53271,120.62796 C 211.67702,120.56878 211.85504,120.42964 212.28934,120.53764 C 213.07833,120.73385 213.61162,121.1852 213.86325,121.44085 C 214.11498,121.6965 214.06674,121.71726 214.40806,121.80213 C 214.90493,121.92568 215.48364,122.06281 215.98196,122.61502 C 216.48038,123.16724 216.58944,124.02165 216.37549,124.87304 C 216.20125,125.56614 215.85373,125.84495 215.70961,126.13753 C 215.56539,126.43011 215.53314,126.479 215.64907,126.70956 C 215.77992,126.96993 215.97732,127.34555 216.16357,127.61277 C 216.30324,127.81319 216.41559,127.87016 216.37549,127.88373 C 216.9943,127.8727 217.08631,127.79152 217.04137,127.82352 C 216.99304,127.85786 217.213,127.59248 217.70725,127.10095 C 217.98959,126.8201 218.19773,126.63068 218.52443,126.46871 C 218.85112,126.30674 219.38518,126.28188 219.67459,126.40849 C 220.2534,126.66172 220.17736,126.77437 220.52207,126.8601 C 221.22641,127.03525 222.46461,126.97784 223.004,126.70956 C 223.7464,126.34036 224.1099,126.18152 224.66876,125.62571 C 225.12892,125.16797 225.67828,124.81134 226.30319,124.78272 C 226.92801,124.7541 227.42217,124.99302 227.90732,125.23432 C 228.22869,125.39414 228.69379,125.63882 229.11801,126.10743 C 229.54224,126.57603 229.87116,127.38591 229.66283,128.21491 C 229.75106,127.86381 229.6789,128.16956 229.72336,128.42566 C 229.76782,128.68176 229.84133,129.03046 229.90497,129.38908 C 229.9686,129.7477 230.04608,130.12852 230.05635,130.50304 C 230.06652,130.87756 230.14178,131.32123 229.63261,131.82774 C 229.11588,132.34173 228.76759,132.58941 228.72459,132.64063 C 228.68158,132.69184 228.63374,132.64894 228.63374,133.24277 C 228.63374,134.34773 228.62018,135.40743 228.11924,136.404 C 227.99555,136.6499 227.76969,137.06576 227.45336,137.48785 C 227.13703,137.90993 226.74282,138.41719 226.00052,138.6018 C 225.0617,138.83525 224.74256,138.92635 223.8818,139.35448 C 223.76248,139.41382 223.53642,139.5622 223.33699,139.68565 C 223.42774,139.72623 223.48799,139.72623 223.57913,139.77597 C 223.87231,139.93621 224.20036,140.15513 224.42662,140.52865 C 224.65277,140.90216 224.72144,141.43283 224.60822,141.88346 C 224.55088,142.11146 224.39775,142.61584 224.18448,143.14795 C 224.07774,143.41401 223.97198,143.69695 223.79095,143.96084 C 223.60993,144.22472 223.37651,144.55313 222.85271,144.6834 C 222.49464,144.77244 222.32737,144.86645 222.3079,144.86404 C 222.31419,144.91125 222.32369,144.98587 222.42897,145.19522 C 222.5511,145.43833 222.70433,145.61673 222.97378,145.88768 C 223.24314,146.15863 223.59811,146.52775 223.8818,147.09196 C 224.3131,147.95009 224.69859,148.71696 225.15303,149.62094 C 225.44021,150.19241 225.59092,150.73943 225.54646,151.24671 C 225.502,151.75399 225.37173,152.06225 225.24379,152.57142 C 225.09289,153.1719 224.95874,153.56822 224.94111,153.65527 C 224.95835,153.67134 224.97821,153.7189 225.15303,153.8058 C 225.91199,154.18329 226.7126,154.64989 227.39282,155.552 C 227.914,156.24323 228.40903,156.73163 229.08779,157.23799 C 229.60297,157.62235 230.01587,158.10279 230.41956,158.53259 C 230.82325,158.96239 231.21329,159.3338 231.47887,159.46591 C 231.65931,159.55567 232.16761,159.77271 232.65935,160.06804 C 233.15099,160.36338 233.67178,160.66729 234.02133,161.36264 C 234.38841,162.09296 234.69516,162.6049 235.32288,163.22927 C 235.59717,163.50216 235.83641,163.81973 236.14005,164.13248 C 236.44369,164.44523 236.83547,164.65918 236.77571,164.6443 C 237.4229,164.80526 237.85895,165.06378 238.16801,165.21633 C 238.47698,165.36888 238.65597,165.45718 239.07603,165.45718 C 240.25167,165.45718 240.74999,165.43748 241.37636,165.12601 C 241.9387,164.84629 243.00373,164.09309 244.37278,164.43355 C 244.97638,164.58364 245.40303,164.89223 245.70455,165.0959 C 246.00606,165.29957 246.19541,165.41367 246.4915,165.48729 C 247.29772,165.68778 247.8097,166.22368 248.09572,166.57114 C 248.31016,166.83174 248.40101,166.93692 248.39839,166.96253 C 248.79957,167.06386 249.3039,167.23562 249.79069,167.44424 C 250.28766,167.65725 250.73087,167.83761 251.15268,168.25713 C 251.29476,168.39846 251.61361,168.70346 251.93963,169.0098 C 252.10264,169.16297 252.24298,169.33614 252.36337,169.4313 C 252.37751,169.44249 252.37848,169.45272 252.39369,169.46141 C 252.42129,169.46828 252.40502,169.456 252.42391,169.46141 C 252.48163,169.47185 253.16195,169.55607 253.78599,169.64205 C 254.10474,169.68597 254.43473,169.75259 254.75454,169.8528 C 255.07427,169.953 255.48919,170.01974 255.78364,170.60547 C 256.01628,171.06838 256.11614,171.36271 256.20738,171.47857 C 256.29852,171.59443 256.34976,171.66452 256.81273,171.77964 C 257.36132,171.91607 258.3915,171.40414 259.32487,171.74953 L 261.70131,172.62893 C 261.71313,172.96077 263.93063,173.81706 263.93635,173.48372 C 263.94206,173.15039 266.37815,174.18957 266.34571,174.12491 C 265.96487,173.36745 269.9522,176.06869 269.00447,175.56982 C 268.56091,175.33633 271.27999,174.33978 271.45326,173.95137 C 271.62654,173.56295 270.33529,170.63325 270.2391,169.87756 C 270.11184,168.87775 269.61315,167.17512 269.88142,166.39534 C 270.0585,165.88062 271.18254,165.78045 271.58646,165.81231 C 272.17189,165.8585 273.20523,168.49449 273.16979,167.98346 C 273.10747,167.08482 272.46103,170.14704 272.71864,170.29334 C 272.92444,170.4102 272.84947,169.36049 272.9617,169.5512 C 273.07176,169.73819 277.61042,167.29859 278.01702,166.89411 C 278.50575,166.408 280.23093,165.45268 280.70978,165.1589 C 281.44985,164.70487 282.22954,161.88554 282.57716,161.53977 C 283.1333,160.98654 284.50486,159.50367 284.89306,159.11759 C 285.42131,158.59204 287.38931,157.20971 287.92977,157.21089 C 288.47022,157.21208 290.61869,157.83119 291.02158,157.89602 C 292.11734,158.07234 290.39142,153.14094 288.29136,154.10277 C 287.35991,154.52937 287.58521,149.75697 287.61465,150.45822 C 287.66444,151.64417 286.75595,146.86838 287.53408,146.03821 C 288.08982,145.44531 290.352,146.14212 290.50029,146.06832 C 290.58455,146.01158 290.66756,145.96216 290.74243,145.88768 C 291.21198,145.42058 291.9785,145.23014 292.4374,144.77372 C 292.91936,144.29434 293.37729,143.87687 293.95077,143.44902 C 294.57472,142.98352 294.80291,142.57131 295.28254,142.09421 C 295.62279,141.7558 296.55135,141.40296 296.91698,141.2211 C 297.37384,140.9939 297.60388,140.92368 297.76446,140.95014 C 297.92505,140.97661 298.03498,141.09975 298.27906,141.2211 C 298.73099,141.44592 298.21358,142.80618 298.12767,143.14795 C 297.96031,143.81398 297.58693,144.19357 297.37104,144.62319 C 297.06168,145.2385 296.90894,145.6151 297.06836,146.24896 C 297.14623,146.55913 297.32774,146.85486 297.52232,147.15217 C 297.81676,147.12614 298.71016,147.30786 298.91462,147.39303 C 299.16751,147.49832 299.53557,147.56635 299.9135,147.75431 C 300.26905,147.93115 300.47865,147.98876 300.82152,148.20591 C 301.16429,148.42307 301.45476,148.80334 301.66901,149.22955 C 301.80228,149.49481 301.96393,149.65712 302.12297,150.01233 C 302.282,150.36754 302.30225,150.9247 302.1835,151.39725 C 301.86514,152.66411 300.91527,153.16959 300.54906,153.65527 C 300.05268,154.3136 299.73983,154.54258 299.58051,154.85954 C 299.26582,155.48549 299.10097,155.83407 298.91462,156.57564 C 298.97884,156.58596 298.89312,156.57564 299.00547,156.57564 C 299.80608,156.57564 300.23409,156.51329 300.48853,156.395 C 300.49192,156.36902 300.52621,156.29416 300.70045,156.06382 C 300.78752,155.94865 300.96128,155.77406 301.24526,155.67243 C 301.52915,155.5708 301.83569,155.59679 302.03221,155.67243 C 302.42516,155.82371 302.60018,156.02665 302.84939,156.27457 C 303.26422,156.68718 303.39953,157.13889 303.48505,157.41863 C 303.56331,157.6747 303.59295,157.72888 303.5758,157.7197 C 303.64709,157.73834 303.92797,157.89084 304.24169,157.99067 C 304.65991,158.12377 305.12491,158.24928 305.57345,158.47238 C 306.12282,158.7456 306.60022,159.29949 306.69339,159.82719 C 306.78647,160.35488 306.69339,160.67064 306.69339,161.09168 C 306.69339,161.32386 306.72226,161.27083 306.75393,161.30243 C 306.77494,161.3235 306.92488,161.41129 307.0566,161.48307 C 307.12692,161.41906 307.2137,161.3169 307.29874,161.21211 C 307.38368,161.10732 307.43686,161.04456 307.60141,160.88093 C 307.94235,160.54172 308.28163,160.36254 308.50944,160.21858 C 308.73714,160.07461 308.85618,159.9493 308.99371,159.76697 C 309.41717,159.20527 309.84459,158.74164 310.68869,158.32184 C 311.4062,157.96495 311.78045,157.71752 312.05067,157.44874 C 312.59694,156.90536 313.07628,156.93746 313.50351,156.87671 C 313.93074,156.81596 314.35225,156.77855 314.44185,156.75628 C 315.35151,156.5301 316.35319,156.57564 317.22645,156.57564 C 317.45163,156.57564 317.50045,156.55008 317.65019,156.45521 C 317.79983,156.36034 318.02463,156.14853 318.43714,155.94339 C 318.5494,155.88756 318.80035,155.46798 318.80035,154.85954 C 318.80025,154.60563 318.75008,154.52277 318.64896,154.31762 C 318.54785,154.11247 318.34503,153.80078 318.22522,153.32409 C 318.16023,153.06555 317.92109,152.90112 317.43827,152.42088 C 316.79999,151.78601 316.56056,150.89059 316.56056,149.95211 C 316.56047,149.30416 316.85878,148.93814 317.10538,148.62741 C 317.35197,148.31668 317.62007,148.05516 317.74094,147.93495 C 318.06415,147.61346 318.40285,147.14441 318.83057,146.70057 C 318.86457,146.60566 318.93479,146.42759 318.98195,146.24896 C 319.0761,145.89172 319.17828,145.45906 319.25431,145.1049 C 319.29238,144.92782 319.31833,144.77248 319.34516,144.6533 C 319.35194,144.6227 319.37122,144.59456 319.37538,144.56297 C 319.13721,144.53747 318.90001,144.51054 318.7095,144.47265 C 317.92284,144.31616 317.29512,144.28102 316.77239,144.02105 C 316.04984,143.66168 315.85439,143.25846 315.44062,142.84688 C 315.05484,142.46315 314.42674,142.25986 313.95757,141.79314 C 313.53654,141.37435 312.76711,141.2413 312.14152,140.61897 C 311.55681,140.03744 310.97984,140.03551 310.20441,139.26415 C 309.64768,138.71038 309.3362,138.25004 308.87264,137.78891 C 308.51496,137.4332 308.00695,136.80748 307.66195,136.46421 C 307.20973,136.01446 307.02251,135.49708 306.63286,135.1094 C 306.13773,134.61694 305.5072,134.14031 305.14971,133.78469 C 304.69981,133.33717 304.69487,132.75774 304.54436,132.15892 C 304.35423,131.40258 304.1396,131.25571 303.21259,131.25571 C 302.41208,131.25571 301.8139,130.80684 301.24526,130.38261 C 300.69115,129.96924 300.71343,129.23568 300.21617,128.57619 C 299.73199,127.93409 299.46341,127.56054 299.15676,126.95042 C 298.91617,126.4717 298.24923,125.74661 297.825,125.32465 C 297.69734,125.1977 297.56436,124.93574 297.52232,124.87304 C 296.75949,124.11426 295.71994,123.68231 295.13125,123.09673 C 294.80882,122.77606 293.86815,122.52879 293.49681,122.34406 C 293.36121,122.27665 292.7177,120.97487 292.58879,120.71828 C 292.32747,120.19861 291.5782,119.71307 291.25702,119.39358 C 290.96897,119.10706 290.75608,117.73163 290.65167,117.3162 C 290.44314,116.48675 289.98289,116.22077 289.77387,115.38936 C 289.60738,114.72698 288.46884,114.14801 288.2605,113.73348 C 287.97952,113.17453 287.44294,112.28787 287.08012,111.80663 C 286.68921,111.28824 286.24309,110.62324 286.02071,110.18086 C 285.73112,109.6048 285.78235,108.99166 285.59697,108.25402 C 285.39386,107.44603 285.14524,106.78781 284.99162,106.17664 C 284.80314,105.42652 284.84024,104.60925 284.84033,103.79819 C 284.84033,103.13079 284.46221,102.32346 284.23499,101.87135 C 283.97871,101.36155 284.09919,100.30777 283.93231,99.643439 C 283.70751,98.749352 283.76146,98.57031 283.20589,98.017662 C 282.69992,97.514448 282.37604,97.264989 281.54114,97.264989 C 280.50207,97.264989 280.48105,96.994711 280.96611,96.512316 C 281.3392,96.141157 281.62201,95.709313 281.9952,95.338145 C 282.43948,94.896205 282.29787,94.145063 282.29787,93.411302 C 282.29787,92.668985 282.29787,91.925725 282.29787,91.183389 C 282.29787,90.726708 281.53639,90.140841 281.42007,89.678042 C 281.2712,89.085788 280.69259,88.649291 280.51205,87.751199 C 280.34536,86.922406 280.53772,86.22746 280.36076,85.523286 C 280.19359,84.858361 279.76626,84.542985 279.60403,83.897512 C 279.49313,83.456081 279.0227,82.664929 278.72632,82.271737 C 278.42142,81.86737 278.22316,80.601154 278.12097,80.194359 C 277.94276,79.485358 277.8153,78.707404 277.66691,78.116981 C 277.50507,77.472933 277.36424,76.774674 277.36424,75.889068 C 277.36424,75.043357 277.50671,74.599817 277.66691,73.962224 C 277.85055,73.231527 277.79486,72.429555 277.96959,71.734311 C 278.14063,71.053663 278.23546,70.556018 278.42365,69.807468 C 278.60903,69.069708 278.74714,68.399793 278.87761,67.880624 C 279.06512,67.134676 278.99936,66.617511 278.72632,66.074208 C 278.44641,65.517495 277.72997,65.30772 277.21295,65.050573 C 276.60499,64.748232 276.46765,64.429647 276.03247,63.99683 C 275.80283,63.768393 276.23655,62.612865 276.33515,62.220521 C 276.51578,61.50176 276.48644,60.933852 276.48653,60.143143 C 276.48653,59.401876 276.32304,58.770016 276.18386,58.216299 C 275.99364,57.459551 275.72554,57.338969 275.27584,56.891594 C 274.99418,56.611499 274.81093,55.102115 274.70071,54.663681 C 274.53799,54.016281 274.70071,53.107052 274.70071,52.435768 C 274.70071,51.621571 274.88231,50.990665 275.12445,50.508925 C 275.43478,49.891526 275.86356,49.374515 276.03247,48.702509 C 276.19355,48.06167 276.48644,47.775861 276.48653,46.9262 C 276.48653,46.264088 276.63598,45.608923 276.78921,44.999356 C 276.93091,44.435446 277.08278,43.740983 277.21295,43.223047 C 277.421,42.395131 277.88164,42.451568 277.66691,41.597273 C 277.47059,40.816054 276.49021,41.582581 276.78921,40.392996 C 276.92403,39.856216 278.03032,40.302839 278.42365,40.694065 C 278.91548,41.18331 278.72622,40.106734 278.72632,39.36936 C 278.72632,39.261004 278.72835,39.2137 278.72632,39.128505 C 278.33638,38.566936 277.98169,37.880382 277.69723,37.171554 C 277.30613,36.197169 276.92083,35.193495 277.45509,34.130754 C 277.78043,33.483556 277.81181,33.081626 277.60638,32.264134 C 277.44889,31.637457 277.57752,31.147904 277.60638,30.879215 C 277.63524,30.610527 277.63495,30.514493 277.45509,30.156649 C 277.23707,29.722926 277.10709,29.261505 276.97081,28.831944 C 276.86475,28.498003 276.77623,28.275115 276.69836,28.079271 C 276.60625,28.085976 276.51559,28.100745 276.36546,28.139485 C 275.92816,28.252292 275.43061,28.483975 275.39691,28.500768 C 274.30408,29.044301 273.51849,28.975407 272.64253,29.193227 C 271.16732,29.560079 269.82577,29.027162 269.6461,28.982479 C 268.99543,28.820691 268.61982,28.502733 268.40509,28.38034 C 268.19036,28.257947 268.02803,28.169591 267.34578,28.169591 C 267.6161,28.169591 267.10548,28.294788 266.6799,28.530875 C 266.25422,28.766961 265.85808,29.04382 265.25728,29.193227 C 264.40757,29.404534 263.55543,29.248845 263.01749,28.77173 C 262.5244,28.334375 262.349,27.810052 262.23054,27.356704 C 262.20691,27.37893 262.04952,27.138383 261.8068,26.965314 C 261.48311,26.734555 261.1291,26.592239 260.74749,26.212641 C 260.24549,25.713338 260.05991,25.524896 260.05129,25.520185 C 260.04267,25.515474 259.87211,25.459971 259.11305,25.459971 C 258.79052,25.459971 258.64446,25.535379 258.23525,25.700823 C 257.82603,25.866272 257.20896,26.062106 256.38898,26.062106 C 255.6923,26.062106 255.15127,25.853516 254.75454,25.73093 C 254.35773,25.608344 254.13912,25.575361 253.87674,25.640609 C 253.46724,25.742453 253.33232,25.848756 252.9385,26.062106 C 252.54459,26.275456 251.90796,26.483603 251.09214,26.483603 C 249.17934,26.483623 247.69164,26.006777 246.21914,25.640609 C 245.07082,25.355064 244.73124,25.249223 243.49507,25.249223 C 242.15818,25.249223 240.83658,25.249223 239.49978,25.249223 C 238.52037,25.249223 237.69652,25.498749 237.16914,25.761037 C 236.16988,26.257999 235.55591,26.367684 234.657,26.81478 C 233.44456,27.417727 232.58816,27.695771 231.63026,28.410447 C 230.52862,29.232275 229.92763,29.501859 229.20886,30.216863 C 228.33523,31.085821 227.5227,31.44247 226.87823,32.083493 C 226.15181,32.80603 225.34791,33.642405 224.30555,34.160861 C 223.11296,34.753944 222.02053,34.638747 221.15774,34.853321 C 220.11867,35.11172 218.96648,35.134794 218.40336,35.274818 C 217.24574,35.562678 216.28871,35.75754 215.19501,35.485566 C 213.65849,35.103473 212.33951,34.090339 211.38132,33.137235 C 210.85443,32.613124 210.61413,31.97346 210.50362,31.451247 C 210.39301,30.929034 210.34603,30.523221 210.26148,30.186756 C 210.25499,30.161196 210.08985,29.895147 209.74688,29.674938 C 209.40392,29.454729 208.98376,29.295398 208.65726,29.133013 C 208.67217,29.140412 208.46645,29.109236 208.05191,29.313655 C 207.63737,29.518074 207.30505,29.860657 206.59907,30.036221 C 205.51351,30.306191 204.62612,30.5617 203.36051,30.24697 C 202.36251,29.998812 201.43696,30.058062 200.42452,29.55451 C 199.78654,29.237207 199.38875,28.74065 199.03222,28.350233 C 198.6757,27.959816 198.35443,27.666897 198.33612,27.657774 C 197.77639,27.379412 197.39226,27.092929 197.09511,26.9051 C 196.79796,26.717272 196.5658,26.58905 196.0358,26.483603 C 195.28769,26.334784 194.02866,26.483603 192.85768,26.483603 C 191.59119,26.483613 190.31047,26.483603 189.04398,26.483603 C 188.06071,26.483613 187.15501,26.667318 186.31992,26.874993 C 185.12608,27.171853 184.08778,27.121475 183.38403,27.29649 C 182.10699,27.614063 180.96516,27.687235 179.99408,27.928736 C 178.75724,28.236299 177.52775,28.218649 176.36199,27.928736 C 175.3485,27.676714 174.04317,27.227086 173.21419,26.81478 C 172.37164,26.39573 171.37267,26.272855 170.24798,26.272855 C 169.75634,26.272855 169.58839,26.347135 169.37018,26.453496 C 169.15196,26.559858 168.86285,26.781079 168.3714,27.025528 C 167.76993,27.324671 167.16768,27.345558 166.58558,27.356704 C 166.00348,27.367851 165.43658,27.326597 164.98145,27.326597 C 164.84315,27.326597 164.38802,27.451043 163.92205,27.627667 C 163.45608,27.804291 162.97896,28.012727 162.46921,28.139485 C 161.78231,28.310299 161.47431,28.4188 161.34937,28.500768 C 161.22433,28.582736 161.0742,28.716892 160.77424,29.313655 C 160.18264,30.490648 159.88559,30.870766 159.50301,31.631889 C 159.29632,32.043067 159.05466,32.196434 158.80691,32.354455 C 158.55905,32.512475 158.30519,32.637518 158.05017,32.745845 C 157.54023,32.962499 157.05915,33.127755 156.77894,33.197449 C 156.3119,33.313589 156.05272,33.210214 155.78017,33.137235 C 155.50752,33.064256 155.23448,32.969253 154.9629,32.866273 C 154.41983,32.660312 153.86921,32.428715 153.5706,32.354455 C 152.29859,32.038154 151.22427,31.518667 150.18065,30.999643 C 149.24803,30.535823 148.4541,30.050605 147.88033,29.765259 C 147.28689,29.470115 145.99503,29.249077 144.91412,28.711516 C 144.1448,28.328884 143.37848,28.369241 142.37166,27.868522 C 141.7759,27.572222 141.64079,27.013389 141.58471,26.634138 C 141.52873,26.254887 141.5481,25.894615 141.58471,25.550292 C 141.65793,24.861648 141.83886,24.237996 141.88739,24.044946 C 141.92448,23.897349 141.8745,23.625144 141.7361,23.262166 C 141.60302,22.91333 141.38519,22.554388 141.25182,22.057888 C 141.1785,22.001201 141.01433,21.931487 140.82807,21.84714 C 140.45557,21.678445 140.06427,21.572642 139.6476,21.365429 C 139.59317,21.490414 139.52508,21.639368 139.25417,22.178316 C 138.83643,23.009344 138.6064,23.936513 137.80134,24.737405 C 137.08499,25.449913 136.45582,26.07571 135.68262,26.844886 C 134.89518,27.628148 133.90532,28.432047 133.3823,28.952372 C 132.7447,29.586554 131.93208,30.547403 130.5977,30.879215 C 130.57145,30.885738 130.36456,31.017312 130.0831,31.300712 C 129.80164,31.584112 129.48047,31.976794 128.90272,32.264134 C 128.07693,32.674841 127.28465,32.530424 126.6024,32.414669 C 125.92005,32.298914 125.27354,32.173813 125.08903,32.173813 C 124.1782,32.173823 123.54418,32.065881 122.90978,31.932958 C 122.78454,32.010918 122.66028,32.081315 122.51625,32.113599 C 122.182,32.188554 121.89018,32.109466 121.66877,32.023279 C 121.31534,31.885702 121.09645,31.691062 120.88181,31.511461 C 120.82748,31.466026 120.75251,31.435813 120.70021,31.391033 C 120.44131,31.169215 120.21787,30.947975 120.03433,30.819001 C 119.89669,30.722274 119.79751,30.702215 119.79219,30.698574 C 119.00533,30.68628 118.44977,30.228684 118.06699,29.825473 C 117.67889,29.416741 117.40566,28.991573 117.24973,28.681409 C 117.14822,28.479457 117.21602,28.610241 116.8563,28.410447 C 116.53445,28.231732 116.04659,27.741408 115.79689,27.055635 C 115.79311,27.049787 115.80706,27.031848 115.79689,27.025528 C 115.71563,26.974968 115.54507,26.88984 115.34293,26.81478 C 115.14069,26.739719 114.9125,26.668937 114.70727,26.604031 C 114.50203,26.539125 114.34716,26.515271 114.10192,26.393283 C 113.19254,25.941023 113.092,25.91636 111.9832,25.640609 C 110.95945,25.386038 110.19671,25.249223 109.25914,25.249223 C 108.2039,25.249223 107.02749,25.243712 106.08112,25.008368 C 104.91933,24.719466 104.35059,24.478909 103.53865,24.075053 C 102.36089,23.489311 101.86924,22.732996 101.23833,22.419171 C 100.36537,21.985054 99.524659,21.226484 99.059074,20.76329 C 98.417793,20.125428 98.139139,19.824098 97.424635,19.468692 C 97.037019,19.275931 96.736669,19.023774 96.395543,18.776233 C 96.054321,18.528691 95.687529,18.288655 95.517741,18.204201 C 94.959271,17.926456 93.686103,17.628296 92.97528,17.451528 C 92.325184,17.289856 91.073034,17.339771 89.827471,17.030031 C 89.47201,16.941646 88.88923,16.871095 88.314101,16.819282 C 87.738972,16.767469 87.171592,16.738393 86.649443,16.608534 C 85.809607,16.399693 84.703709,16.019295 83.683238,15.76554 C 82.718362,15.525609 81.499724,15.689227 80.111686,15.344043 C 79.491035,15.189702 78.956488,14.968308 78.568,14.591369 C 78.179512,14.21443 77.997423,13.787374 77.781048,13.356985 C 77.239237,12.279234 77.227905,11.005561 77.084946,10.436613 C 76.919033,9.7764575 76.460712,8.8637505 76.086074,8.1183795 C 75.583102,7.1177118 75.489346,6.5613646 75.208368,6.2818567 C 74.81649,5.8920659 74.823851,5.779413 74.784624,5.6797181 C 74.684766,5.719835 74.646702,5.7332265 74.451635,5.8302528 C 73.581968,6.2627713 72.540576,6.5528191 71.273607,6.5528191 C 70.538956,6.5528191 69.875786,6.390049 69.397028,6.0108943 C 68.918174,5.6317397 68.695309,5.1568209 68.489006,4.7464032 C 68.229143,4.2294792 68.096935,3.9003069 67.974412,3.6625537 C 67.85189,3.4248004 67.736632,3.2453535 67.39938,2.9098804 C 67.143778,2.6557297 67.062226,2.6180503 66.915102,2.4582764 z"
     style="fill:#f4e2ba;fill-opacity:1;fill-rule:evenodd;stroke:#7c7a75;stroke-width:2;stroke-linecap:butt;stroke-linejoin:miter;stroke-miterlimit:2;stroke-dasharray:none;stroke-opacity:1"
     id="path9097"
     sodipodi:nodetypes="csssssssssscsssssssssssssssssssssssssssssssssssscsssssssssssssssssssssssssssssssssssscssssssssssssssssssssssssscsssscsssssssssssssssssssssssssssssssssssssssssssssssssccssssssssssssssssssssssssssssssssssssssssssscsccssssssssssssssssssssssssssssssssssssssssssssssscsssssssssssscsssssssscssssssssscsssscsssssssssssssssssssssssssssssssssssssssssssssssssscssssssssssssssssssssssssssssssscsssssssssssscsssssssssssssssssssssssssssssscsssssssscssssssssssssscsssssssssssssssssscsssssssssssssssssssscsssssssssssssssssssssssssssssssssssssssssssssssssscsssssscssssssssscsssssssssssssssssssssssssssssssssssssssssssssssssssssssssssssssssscscssssssssscsssssssssssssssssssssssssssssssssscssssssc" />
</svg>
